<?xml version="1.0" encoding="iso-8859-1"?>
<!-- Uploaded to: SVG Repo, www.svgrepo.com, Generator: SVG Repo Mixer Tools -->
<!DOCTYPE svg PUBLIC "-//W3C//DTD SVG 1.1//EN" "http://www.w3.org/Graphics/SVG/1.1/DTD/svg11.dtd">
<svg fill="#000000" version="1.1" id="Capa_1" xmlns="http://www.w3.org/2000/svg" xmlns:xlink="http://www.w3.org/1999/xlink" 
	 width="800px" height="800px" viewBox="0 0 31.93 31.93" xml:space="preserve"
	>
<g>
	<g>
		<path d="M29.797,6.968c-0.361,0-0.654,0.293-0.654,0.655v3.916c0,0.361,0.293,0.655,0.654,0.655h1.477
			c0.361,0,0.656-0.293,0.656-0.655V7.551c0-0.322-0.262-0.584-0.584-0.584V6.921l-0.021-1.014c0.006-0.048,0.025-1.192-0.782-2.115
			c-0.575-0.654-1.05-1.025-2.675-1.096c0-0.463-0.375-0.838-0.84-0.838H5.141c-0.467,0-0.846,0.379-0.846,0.846
			c0,0,0.02,0,0.016,0.001C2.795,2.793,2.389,3.156,1.834,3.789C1.031,4.704,0.928,5.831,0.928,5.831v1.136h-0.05
			C0.393,6.968,0,7.361,0,7.846v3.469c0,0.485,0.393,0.878,0.878,0.878h0.914c0.485,0,0.878-0.393,0.878-0.878V7.622
			c0-0.361-0.293-0.655-0.655-0.655L2.05,5.795C2.049,5.789,2.111,5.057,2.601,4.498C2.929,4.125,3.558,3.882,4.34,3.79
			L4.296,13.933H3.94c-0.573,0-1.038,0.464-1.038,1.037v10.931c0,0.572,0.465,1.037,1.038,1.037h1.052v-0.062v2.158
			c0,0.573,0.465,1.037,1.038,1.037h2.22c0.573,0,1.038-0.464,1.038-1.037v-2.158v0.062h13.353v-0.062v2.158
			c0,0.573,0.465,1.037,1.039,1.037h2.104c0.573,0,1.038-0.464,1.038-1.037v-2.158v0.062h1.4c0.57,0,1.035-0.465,1.035-1.037V14.97
			c0-0.573-0.465-1.037-1.035-1.037h-0.356V3.769c0.813,0.082,1.442,0.319,1.788,0.705c0.498,0.557,0.535,1.285,0.535,1.358v1.136
			H29.797z M8.299,13.933c-0.608,0-1.101-0.493-1.101-1.101V8.065c0-0.607,0.491-1.099,1.097-1.101l15.678-0.05
			c0.293-0.001,0.574,0.115,0.781,0.32c0.207,0.207,0.324,0.488,0.324,0.78v4.817c0,0.608-0.493,1.101-1.102,1.101L8.299,13.933
			L8.299,13.933z M23.105,20.437H9.288v-1.51h13.817V20.437L23.105,20.437z M23.105,17.998H9.288v-1.51h13.817V17.998L23.105,17.998
			z M4.992,22.898c0-0.462,0.374-0.837,0.836-0.837h1.231c0.461,0,0.836,0.375,0.836,0.837v0.069c0,0.463-0.374,0.836-0.836,0.836
			H5.828c-0.461,0-0.836-0.373-0.836-0.836V22.898z M7.895,19.948c0,0.462-0.374,0.836-0.836,0.836h-1.23
			c-0.461,0-0.836-0.374-0.836-0.836v-2.624c0-0.462,0.374-0.836,0.836-0.836h1.23c0.461,0,0.836,0.374,0.836,0.836V19.948z
			 M8.708,3.965c0-0.329,0.267-0.596,0.597-0.596h13.552c0.33,0,0.598,0.267,0.598,0.596v0.897c0,0.329-0.268,0.596-0.598,0.596
			H9.304c-0.33,0-0.597-0.267-0.597-0.596L8.708,3.965L8.708,3.965z M9.288,22.873v-1.507h13.817v1.507H9.288z M27.285,22.968
			c0,0.463-0.374,0.836-0.836,0.836h-1.232c-0.461,0-0.836-0.373-0.836-0.836V22.9c0-0.464,0.374-0.839,0.836-0.839h1.232
			c0.461,0,0.836,0.375,0.836,0.839V22.968z M27.285,19.948c0,0.462-0.374,0.836-0.836,0.836h-1.232
			c-0.461,0-0.836-0.374-0.836-0.836v-2.624c0-0.462,0.374-0.836,0.836-0.836h1.232c0.461,0,0.836,0.374,0.836,0.836V19.948z"/>
	</g>
</g>
</svg>