<svg width="35" height="35" viewBox="0 0 35 35" fill="none" xmlns="http://www.w3.org/2000/svg">
<circle opacity="0.8" cx="17.5" cy="17.5" r="17.4" fill="white" stroke="#ECECEC" stroke-width="0.2"/>
<path fill-rule="evenodd" clip-rule="evenodd" d="M13.2317 23.0977H6.7768C6.77422 23.6153 6.71101 23.8647 6.27764 23.8647C5.84427 23.8647 5.76401 23.6153 5.76068 23.0977H4.81556C4.47679 21.6624 4.4233 15.2614 4.81556 13.2466C4.82824 13.1815 4.84124 13.1182 4.85462 13.0567C4.47914 13.0255 4.16967 13.2234 4.184 13.3495V14.9959C4.21779 15.283 4.09953 15.3688 4.03617 15.3759H3.76757H3.49896C3.17795 15.0382 3.02513 14.242 3.00267 13.873C2.93249 12.7208 4.26484 12.4347 5.00531 12.493C5.44324 11.1707 6.26459 11 8.39939 11H11.5286C13.8756 11.0001 14.5822 11.209 14.9943 12.4991C15.7188 12.4186 17.1333 12.6867 17.061 13.873C17.0386 14.242 16.8858 15.0382 16.5647 15.3759H16.2961H16.0275C15.9642 15.3688 15.8459 15.283 15.8797 14.9959V13.3495C15.8949 13.2163 15.5482 13.0027 15.1442 13.0644C15.1575 13.1235 15.1707 13.1842 15.1837 13.2466C15.5118 14.8156 15.469 20.4677 15.4066 23.0977H14.2478C14.2452 23.6153 14.182 23.8647 13.7486 23.8647C13.3152 23.8647 13.235 23.6153 13.2317 23.0977ZM14.7442 18.3444H5.3121C5.3121 15.6653 5.5528 14.1445 5.74893 12.942C5.90584 11.9799 6.91977 11.9045 7.40713 11.9163C8.62848 11.8839 11.41 11.9517 12.765 11.987C14.1201 12.0224 14.3787 12.659 14.4143 12.942L14.7442 18.3444ZM11.8626 21.3487H7.81662V22.312H11.8626V21.3487ZM7.04608 19.9036C7.04608 20.3824 6.65792 20.7706 6.17909 20.7706C5.70027 20.7706 5.3121 20.3824 5.3121 19.9036C5.3121 19.4248 5.70027 19.0366 6.17909 19.0366C6.65792 19.0366 7.04608 19.4248 7.04608 19.9036ZM13.5002 20.7706C13.9791 20.7706 14.3672 20.3824 14.3672 19.9036C14.3672 19.4248 13.9791 19.0366 13.5002 19.0366C13.0214 19.0366 12.6332 19.4248 12.6332 19.9036C12.6332 20.3824 13.0214 20.7706 13.5002 20.7706Z" fill="#FFDA3E"/>
<rect x="7.81641" y="21.3488" width="4.04597" height="0.963325" fill="white"/>
<circle cx="6.179" cy="19.9036" r="0.866992" fill="white"/>
<circle cx="6.179" cy="19.9036" r="0.866992" fill="white"/>
<circle cx="6.179" cy="19.9036" r="0.866992" fill="white"/>
<circle cx="6.179" cy="19.9036" r="0.866992" fill="white"/>
<circle cx="6.179" cy="19.9036" r="0.866992" fill="white"/>
<circle cx="13.5003" cy="19.9036" r="0.866992" fill="white"/>
<path d="M14.7441 18.3444H5.31201C5.31201 15.6652 5.55272 14.1444 5.74885 12.9419C5.90575 11.9799 6.91969 11.9045 7.40704 11.9163C8.6284 11.8838 11.4099 11.9516 12.765 11.987C14.12 12.0224 14.3786 12.659 14.4142 12.9419L14.7441 18.3444Z" fill="white"/>
<path fill-rule="evenodd" clip-rule="evenodd" d="M20.1996 24.7062H13.7449C13.7423 25.2234 13.679 25.4726 13.2458 25.4726C12.8125 25.4726 12.7322 25.2234 12.7288 24.7062H11.7838C11.445 23.2709 11.3915 16.8699 11.7838 14.8551C11.7965 14.7898 11.8095 14.7264 11.8229 14.6649C11.4472 14.6334 11.1374 14.8315 11.1518 14.9576V16.604C11.1856 16.8911 11.0673 16.9769 11.0039 16.984H10.7353H10.4667C10.1457 16.6462 9.99291 15.85 9.97044 15.4811C9.90025 14.3286 11.2333 14.0427 11.9736 14.1011C12.4116 12.7792 13.233 12.6085 15.3676 12.6085H18.4968C20.8435 12.6086 21.5503 12.8175 21.9623 14.1072C22.6869 14.0267 24.1013 14.2948 24.0291 15.4811C24.0066 15.85 23.8538 16.6462 23.5328 16.984H23.2642H22.9956C22.9322 16.9769 22.814 16.8911 22.8478 16.604V14.9576C22.8629 14.8243 22.5163 14.6108 22.1123 14.6725C22.1257 14.7317 22.1388 14.7925 22.1519 14.8551C22.48 16.4241 22.4372 22.0763 22.3748 24.7062H21.2157C21.213 25.2234 21.1497 25.4726 20.7165 25.4726C20.2833 25.4726 20.2029 25.2234 20.1996 24.7062ZM21.7121 19.9528H12.28C12.28 17.2737 12.5207 15.7529 12.7168 14.5504C12.8737 13.5884 13.8877 13.5129 14.375 13.5247C15.5964 13.4923 18.3779 13.5601 19.7329 13.5954C21.088 13.6308 21.3466 14.2674 21.3822 14.5504L21.7121 19.9528ZM18.8306 22.9567H14.7847V23.92H18.8306V22.9567ZM14.014 21.5118C14.014 21.9906 13.6258 22.3788 13.147 22.3788C12.6682 22.3788 12.28 21.9906 12.28 21.5118C12.28 21.033 12.6682 20.6448 13.147 20.6448C13.6258 20.6448 14.014 21.033 14.014 21.5118ZM20.4681 22.3788C20.9469 22.3788 21.3351 21.9906 21.3351 21.5118C21.3351 21.033 20.9469 20.6448 20.4681 20.6448C19.9892 20.6448 19.6011 21.033 19.6011 21.5118C19.6011 21.9906 19.9892 22.3788 20.4681 22.3788Z" fill="#FFDA3E"/>
<rect x="14.7847" y="22.9567" width="4.04597" height="0.963325" fill="white"/>
<circle cx="13.1468" cy="21.5118" r="0.866992" fill="white"/>
<circle cx="13.1468" cy="21.5118" r="0.866992" fill="white"/>
<circle cx="13.1468" cy="21.5118" r="0.866992" fill="white"/>
<circle cx="13.1468" cy="21.5118" r="0.866992" fill="white"/>
<circle cx="13.1468" cy="21.5118" r="0.866992" fill="white"/>
<circle cx="20.4681" cy="21.5118" r="0.866992" fill="white"/>
<path d="M21.7119 19.9527H12.2798C12.2798 17.2736 12.5205 15.7528 12.7166 14.5503C12.8735 13.5883 13.8875 13.5129 14.3748 13.5247C15.5962 13.4922 18.3777 13.56 19.7327 13.5954C21.0878 13.6308 21.3464 14.2674 21.382 14.5503L21.7119 19.9527Z" fill="white"/>
<path fill-rule="evenodd" clip-rule="evenodd" d="M27.1679 26.3142H20.713C20.7104 26.8312 20.647 27.0804 20.2139 27.0804C19.7808 27.0804 19.7003 26.8312 19.6969 26.3142H18.7518C18.413 24.8789 18.3595 18.4779 18.7518 16.4631C18.7645 16.3979 18.7776 16.3345 18.791 16.2729C18.4153 16.2415 18.1057 16.4395 18.12 16.5656V18.2121C18.1538 18.4991 18.0356 18.585 17.9722 18.592H17.7036H17.435C17.114 18.2543 16.9612 17.4581 16.9387 17.0892C16.8685 15.9367 18.2013 15.6508 18.9417 15.7092C19.3797 14.3873 20.2011 14.2166 22.3356 14.2166H25.4648C27.8116 14.2167 28.5183 14.4255 28.9304 15.7152C29.6549 15.6347 31.0693 15.9028 30.9971 17.0892C30.9746 17.4581 30.8218 18.2543 30.5008 18.592H30.2322H29.9636C29.9002 18.585 29.7819 18.4991 29.8157 18.2121V16.5656C29.8309 16.4324 29.4843 16.2188 29.0804 16.2805C29.0937 16.3397 29.1069 16.4006 29.12 16.4631C29.448 18.0322 29.4052 23.6843 29.3428 26.3142H28.184C28.1814 26.8312 28.118 27.0804 27.6849 27.0804C27.2517 27.0804 27.1713 26.8312 27.1679 26.3142ZM28.6799 21.5607H19.2479C19.2479 18.8816 19.4886 17.3608 19.6847 16.1583C19.8416 15.1963 20.8555 15.1208 21.3429 15.1326C22.5642 15.1002 25.3457 15.168 26.7008 15.2034C28.0559 15.2387 28.3144 15.8754 28.3501 16.1583L28.6799 21.5607ZM25.7986 24.5646H21.7526V25.528H25.7986V24.5646ZM20.9818 23.1197C20.9818 23.5986 20.5937 23.9867 20.1149 23.9867C19.636 23.9867 19.2479 23.5986 19.2479 23.1197C19.2479 22.6409 19.636 22.2528 20.1149 22.2528C20.5937 22.2528 20.9818 22.6409 20.9818 23.1197ZM27.4362 23.9867C27.915 23.9867 28.3032 23.5986 28.3032 23.1197C28.3032 22.6409 27.915 22.2528 27.4362 22.2528C26.9574 22.2528 26.5692 22.6409 26.5692 23.1197C26.5692 23.5986 26.9574 23.9867 27.4362 23.9867Z" fill="#FFDA3E"/>
<rect x="21.7524" y="24.5647" width="4.04597" height="0.963325" fill="white"/>
<circle cx="20.115" cy="23.1198" r="0.866992" fill="white"/>
<circle cx="20.115" cy="23.1198" r="0.866992" fill="white"/>
<circle cx="20.115" cy="23.1198" r="0.866992" fill="white"/>
<circle cx="20.115" cy="23.1198" r="0.866992" fill="white"/>
<circle cx="20.115" cy="23.1198" r="0.866992" fill="white"/>
<circle cx="27.4363" cy="23.1198" r="0.866992" fill="white"/>
<path d="M28.6801 21.5608H19.248C19.248 18.8817 19.4888 17.3609 19.6849 16.1584C19.8418 15.1964 20.8557 15.1209 21.3431 15.1327C22.5644 15.1003 25.3459 15.1681 26.701 15.2034C28.0561 15.2388 28.3146 15.8754 28.3503 16.1584L28.6801 21.5608Z" fill="white"/>
</svg>
