<svg width="35" height="46" viewBox="0 0 35 46" fill="none" xmlns="http://www.w3.org/2000/svg">
<circle opacity="0.8" cx="17.5" cy="28.5" r="17.4" fill="white" stroke="#ECECEC" stroke-width="0.2"/>
<path fill-rule="evenodd" clip-rule="evenodd" d="M16.2318 36.0977H9.77713C9.77452 36.6149 9.7112 36.8641 9.27798 36.8641C8.84476 36.8641 8.7644 36.6149 8.76103 36.0977H7.81599C7.47722 34.6624 7.42373 28.2614 7.81599 26.2466C7.8287 26.1813 7.84173 26.1179 7.85514 26.0564C7.47942 26.0249 7.16966 26.223 7.184 26.3491V27.9955C7.21779 28.2826 7.09953 28.3684 7.03617 28.3754H6.76757H6.49896C6.17795 28.0377 6.02513 27.2415 6.00267 26.8726C5.93247 25.72 7.26552 25.4342 8.00587 25.4926C8.44384 24.1707 9.26523 24 11.3998 24H14.529C16.8757 24.0001 17.5825 24.209 17.9946 25.4987C18.7191 25.4181 20.1336 25.6863 20.0613 26.8726C20.0388 27.2415 19.886 28.0377 19.565 28.3754H19.2964H19.0278C18.9645 28.3684 18.8462 28.2826 18.88 27.9955V26.3491C18.8951 26.2158 18.5485 26.0023 18.1445 26.0639C18.1579 26.1232 18.1711 26.184 18.1841 26.2466C18.5122 27.8156 18.4694 33.4677 18.407 36.0977H17.2479C17.2453 36.6149 17.182 36.8641 16.7487 36.8641C16.3155 36.8641 16.2352 36.6149 16.2318 36.0977ZM17.7443 31.3443H8.31222C8.31222 28.6652 8.55293 27.1443 8.74906 25.9418C8.90596 24.9798 9.91989 24.9044 10.4072 24.9162C11.6286 24.8838 14.4101 24.9515 15.7652 24.9869C17.1203 25.0223 17.3788 25.6589 17.4144 25.9418L17.7443 31.3443ZM14.8629 34.3482H10.8169V35.3115H14.8629V34.3482ZM10.0462 32.9033C10.0462 33.3821 9.65804 33.7703 9.17921 33.7703C8.70039 33.7703 8.31222 33.3821 8.31222 32.9033C8.31222 32.4245 8.70039 32.0363 9.17921 32.0363C9.65804 32.0363 10.0462 32.4245 10.0462 32.9033ZM16.5003 33.7703C16.9791 33.7703 17.3673 33.3821 17.3673 32.9033C17.3673 32.4245 16.9791 32.0363 16.5003 32.0363C16.0215 32.0363 15.6333 32.4245 15.6333 32.9033C15.6333 33.3821 16.0215 33.7703 16.5003 33.7703Z" fill="#04ADC0"/>
<rect x="10.8169" y="34.3481" width="4.04597" height="0.963325" fill="white"/>
<circle cx="9.179" cy="32.9032" r="0.866992" fill="white"/>
<circle cx="9.179" cy="32.9032" r="0.866992" fill="white"/>
<circle cx="9.179" cy="32.9032" r="0.866992" fill="white"/>
<circle cx="9.179" cy="32.9032" r="0.866992" fill="white"/>
<circle cx="9.179" cy="32.9032" r="0.866992" fill="white"/>
<circle cx="16.5003" cy="32.9032" r="0.866992" fill="white"/>
<path d="M17.7441 31.3442H8.31201C8.31201 28.6651 8.55272 27.1443 8.74885 25.9418C8.90575 24.9798 9.91969 24.9043 10.407 24.9161C11.6284 24.8837 14.4099 24.9515 15.765 24.9869C17.12 25.0222 17.3786 25.6589 17.4142 25.9418L17.7441 31.3442Z" fill="white"/>
<path fill-rule="evenodd" clip-rule="evenodd" d="M23.2001 37.7058H16.7453C16.7426 38.2228 16.6793 38.472 16.2461 38.472C15.813 38.472 15.7326 38.2228 15.7292 37.7058H14.784C14.4453 36.2705 14.3918 29.8695 14.784 27.8547C14.7967 27.7895 14.8098 27.7261 14.8232 27.6645C14.4476 27.6331 14.1379 27.8311 14.1523 27.9572V29.6037C14.1861 29.8907 14.0678 29.9766 14.0044 29.9836H13.7358H13.4672C13.1462 29.6459 12.9934 28.8497 12.9709 28.4808C12.9007 27.3283 14.2335 27.0424 14.9739 27.1008C15.4119 25.7789 16.2333 25.6082 18.3679 25.6082H21.497C23.8438 25.6083 24.5505 25.8171 24.9626 27.1068C25.6871 27.0263 27.1016 27.2944 27.0293 28.4808C27.0068 28.8497 26.854 29.6459 26.533 29.9836H26.2644H25.9958C25.9324 29.9766 25.8142 29.8907 25.848 29.6037V27.9572C25.8631 27.824 25.5165 27.6104 25.1126 27.6721C25.1259 27.7313 25.1391 27.7922 25.1522 27.8547C25.4803 29.4238 25.4375 35.0759 25.3751 37.7058H24.2162C24.2136 38.2228 24.1502 38.472 23.7171 38.472C23.284 38.472 23.2036 38.2228 23.2001 37.7058ZM24.7122 32.9523H15.2801C15.2801 30.2732 15.5208 28.7524 15.7169 27.5499C15.8738 26.5879 16.8878 26.5124 17.3751 26.5242C18.5965 26.4918 21.378 26.5596 22.733 26.595C24.0881 26.6303 24.3467 27.267 24.3823 27.5499L24.7122 32.9523ZM21.8308 35.9562H17.7848V36.9196H21.8308V35.9562ZM17.0141 34.5113C17.0141 34.9902 16.6259 35.3783 16.1471 35.3783C15.6683 35.3783 15.2801 34.9902 15.2801 34.5113C15.2801 34.0325 15.6683 33.6444 16.1471 33.6444C16.6259 33.6444 17.0141 34.0325 17.0141 34.5113ZM23.4684 35.3783C23.9473 35.3783 24.3354 34.9902 24.3354 34.5113C24.3354 34.0325 23.9473 33.6444 23.4684 33.6444C22.9896 33.6444 22.6014 34.0325 22.6014 34.5113C22.6014 34.9902 22.9896 35.3783 23.4684 35.3783Z" fill="#04ADC0"/>
<rect x="17.7847" y="35.9563" width="4.04597" height="0.963325" fill="white"/>
<circle cx="16.1473" cy="34.5114" r="0.866992" fill="white"/>
<circle cx="16.1473" cy="34.5114" r="0.866992" fill="white"/>
<circle cx="16.1473" cy="34.5114" r="0.866992" fill="white"/>
<circle cx="16.1473" cy="34.5114" r="0.866992" fill="white"/>
<circle cx="16.1473" cy="34.5114" r="0.866992" fill="white"/>
<circle cx="23.4686" cy="34.5114" r="0.866992" fill="white"/>
<path d="M24.7124 32.9524H15.2803C15.2803 30.2733 15.521 28.7525 15.7171 27.55C15.874 26.588 16.8879 26.5125 17.3753 26.5243C18.5967 26.4919 21.3781 26.5597 22.7332 26.595C24.0883 26.6304 24.3468 27.267 24.3825 27.55L24.7124 32.9524Z" fill="white"/>
</svg>
