<svg width="22" height="20" viewBox="0 0 22 20" fill="none" xmlns="http://www.w3.org/2000/svg">
<path fill-rule="evenodd" clip-rule="evenodd" d="M15.907 18.8081H5.87199C5.86795 19.6124 5.76957 20 5.09596 20C4.42236 20 4.29748 19.6124 4.29226 18.8081H2.82305C2.29637 16.5766 2.21321 6.62511 2.82305 3.49274C2.84278 3.39143 2.86301 3.29303 2.88382 3.19744C2.29985 3.14865 1.81847 3.45652 1.84076 3.65258V6.21225C1.89329 6.65855 1.70942 6.79201 1.61092 6.80294H1.19333H0.775731C0.276662 6.27788 0.0390746 5.04004 0.00414392 4.46648C-0.10497 2.67483 1.96701 2.23026 3.11811 2.32102C3.79897 0.265449 5.07593 0 8.3948 0H13.2597C16.9084 0.000198375 18.0071 0.32496 18.6477 2.33037C19.7742 2.20534 21.9728 2.62227 21.8605 4.46648C21.8256 5.04004 21.588 6.27788 21.0889 6.80294H20.6713H20.2537C20.1552 6.79201 19.9714 6.65855 20.0239 6.21225V3.65258C20.0474 3.44543 19.5087 3.11348 18.8808 3.20923C18.9015 3.30114 18.922 3.39561 18.9423 3.49274C19.4524 5.93211 19.3858 14.7194 19.2888 18.8081H17.4867C17.4827 19.6124 17.3843 20 16.7107 20C16.0371 20 15.9122 19.6124 15.907 18.8081ZM18.2584 11.4183H3.59442C3.59442 7.25312 3.96865 4.88872 4.27357 3.0192C4.51751 1.52359 6.09386 1.40628 6.85154 1.42461C8.75037 1.37421 13.0747 1.4796 15.1814 1.53458C17.2882 1.58957 17.6901 2.57931 17.7455 3.0192L18.2584 11.4183ZM13.7786 16.0885H7.48837V17.5861H13.7786V16.0885ZM6.29023 13.842C6.29023 14.5865 5.68675 15.1899 4.94233 15.1899C4.1979 15.1899 3.59442 14.5865 3.59442 13.842C3.59442 13.0976 4.1979 12.4941 4.94233 12.4941C5.68675 12.4941 6.29023 13.0976 6.29023 13.842ZM16.3247 15.1899C17.0691 15.1899 17.6726 14.5865 17.6726 13.842C17.6726 13.0976 17.0691 12.4941 16.3247 12.4941C15.5802 12.4941 14.9767 13.0976 14.9767 13.842C14.9767 14.5865 15.5802 15.1899 16.3247 15.1899Z" fill="#646464"/>
<rect x="7.48828" y="16.0885" width="6.29021" height="1.49767" fill="white"/>
<circle cx="4.94239" cy="13.842" r="1.3479" fill="white"/>
<circle cx="4.94239" cy="13.842" r="1.3479" fill="white"/>
<circle cx="4.94239" cy="13.842" r="1.3479" fill="white"/>
<circle cx="4.94239" cy="13.842" r="1.3479" fill="white"/>
<circle cx="4.94239" cy="13.842" r="1.3479" fill="white"/>
<circle cx="16.3247" cy="13.842" r="1.3479" fill="white"/>
<path d="M18.2584 11.4183H3.59448C3.59448 7.25316 3.9687 4.88877 4.27363 3.01925C4.51756 1.52364 6.09391 1.40633 6.8516 1.42466C8.75043 1.37426 13.0748 1.47965 15.1815 1.53463C17.2882 1.58962 17.6902 2.57936 17.7456 3.01925L18.2584 11.4183Z" fill="white"/>
</svg>
