<?xml version="1.0" encoding="UTF-8" standalone="no"?>
<!-- Created with Inkscape (http://www.inkscape.org/) -->

<svg
   xmlns:dc="http://purl.org/dc/elements/1.1/"
   xmlns:cc="http://creativecommons.org/ns#"
   xmlns:rdf="http://www.w3.org/1999/02/22-rdf-syntax-ns#"
   xmlns:svg="http://www.w3.org/2000/svg"
   xmlns="http://www.w3.org/2000/svg"
   xmlns:sodipodi="http://sodipodi.sourceforge.net/DTD/sodipodi-0.dtd"
   xmlns:inkscape="http://www.inkscape.org/namespaces/inkscape"
   version="1.1"
   id="svg2"
   xml:space="preserve"
   width="50"
   height="40"
   viewBox="0 0 50 40.000001"
   sodipodi:docname="דרך אגד.svg"
   inkscape:version="0.92.5 (2060ec1f9f, 2020-04-08)"><metadata
     id="metadata8"><rdf:RDF><cc:Work
         rdf:about=""><dc:format>image/svg+xml</dc:format><dc:type
           rdf:resource="http://purl.org/dc/dcmitype/StillImage" /><dc:title></dc:title></cc:Work></rdf:RDF></metadata><defs
     id="defs6" /><sodipodi:namedview
     pagecolor="#ffffff"
     bordercolor="#666666"
     borderopacity="1"
     objecttolerance="10"
     gridtolerance="10"
     guidetolerance="10"
     inkscape:pageopacity="0"
     inkscape:pageshadow="2"
     inkscape:window-width="1366"
     inkscape:window-height="705"
     id="namedview4"
     showgrid="false"
     inkscape:zoom="5.4003543"
     inkscape:cx="18.859124"
     inkscape:cy="12.121712"
     inkscape:window-x="-8"
     inkscape:window-y="-8"
     inkscape:window-maximized="1"
     inkscape:current-layer="g10" /><g
     id="g10"
     inkscape:groupmode="layer"
     inkscape:label="דרך-אגד_מפורט-קו-עיתונות_261X370-2"
     transform="matrix(1.3333333,0,0,-1.3333333,0,39.999942)"><g
       id="g4388"
       transform="matrix(0.74725758,0,0,0.74725758,-121.26941,-14.064328)"><path
         d="m 180.0221,45.1076 -9.682,-13.582 h 8.205 c 1.088,0 2.101,0.503 2.686,1.332 l 3.003,4.262 c -1.259,2.693 -2.664,5.357 -4.212,7.988"
         style="fill:#309d75;fill-opacity:1;fill-rule:nonzero;stroke:none"
         id="path3658"
         inkscape:connector-curvature="0" /><path
         d="m 182.1768,49.7963 1.153,1.616 c -3.64,2.592 -7.409,5.063 -11.977,7.049 4.041,-2.648 7.58,-5.561 10.824,-8.665"
         style="fill:#234d93;fill-opacity:1;fill-rule:nonzero;stroke:none"
         id="path3662"
         inkscape:connector-curvature="0" /><path
         d="m 181.7477,49.1591 c -3.14,3.257 -6.616,6.29 -10.585,9.248 3.364,-3.796 6.271,-7.622 8.881,-11.637 z"
         style="fill:#7fb6e3;fill-opacity:1;fill-rule:nonzero;stroke:none"
         id="path3666"
         inkscape:connector-curvature="0" /><path
         d="m 201.751,31.5258 c -2.643,4.777 -6.304,9.393 -10.942,13.699 h -4.335 c 3.87,-4.373 7.276,-8.971 9.563,-13.699 z"
         style="fill:#234d93;fill-opacity:1;fill-rule:nonzero;stroke:none"
         id="path3670"
         inkscape:connector-curvature="0" /><path
         d="m 194.1059,31.5258 c -2.203,4.716 -5.149,9.309 -8.819,13.699 h -4.26 c 2.775,-4.462 5.087,-9.039 6.925,-13.699 z"
         style="fill:#7fb6e3;fill-opacity:1;fill-rule:nonzero;stroke:none"
         id="path3674"
         inkscape:connector-curvature="0" /><path
         d="m 167.8292,20.4772 0.17,-1.542 h 0.485 l -0.169,1.542 z"
         style="fill:#454547;fill-opacity:1;fill-rule:nonzero;stroke:none"
         id="path3678"
         inkscape:connector-curvature="0" /><path
         d="m 169.713,20.4977 c -0.166,0 -0.293,-0.041 -0.395,-0.095 l 0.156,-0.327 c 0.071,0.029 0.111,0.049 0.22,0.049 0.186,0 0.274,-0.154 0.298,-0.37 0.033,-0.303 -0.08,-0.473 -0.348,-0.473 -0.269,0 -0.442,0.17 -0.475,0.473 l -0.079,0.722 h -0.486 l 0.079,-0.722 c 0.059,-0.537 0.439,-0.846 1.002,-0.846 0.563,0 0.84,0.309 0.781,0.846 -0.058,0.527 -0.367,0.743 -0.753,0.743"
         style="fill:#454547;fill-opacity:1;fill-rule:nonzero;stroke:none"
         id="path3682"
         inkscape:connector-curvature="0" /><path
         d="m 171.6517,19.7342 0.088,-0.799 h 0.486 l -0.095,0.856 z"
         style="fill:#454547;fill-opacity:1;fill-rule:nonzero;stroke:none"
         id="path3686"
         inkscape:connector-curvature="0" /><path
         d="m 180.3955,19.3075 h -0.042 l -0.08,0.722 c -0.033,0.306 -0.186,0.448 -0.546,0.448 h -0.832 l 0.041,-0.373 h 0.681 c 0.131,0 0.168,-0.049 0.184,-0.195 l 0.066,-0.602 h -0.334 -0.567 l 0.041,-0.373 h 0.567 0.82 0.236 l -0.041,0.373 z"
         style="fill:#454547;fill-opacity:1;fill-rule:nonzero;stroke:none"
         id="path3690"
         inkscape:connector-curvature="0" /><path
         d="m 182.5323,20.4772 h -0.834 l 0.169,-1.542 h 1.683 l -0.094,0.85 c -0.055,0.502 -0.335,0.692 -0.924,0.692 m -0.22,-1.17 -0.088,0.797 h 0.343 c 0.249,0 0.379,-0.092 0.408,-0.355 l 0.048,-0.442 z"
         style="fill:#454547;fill-opacity:1;fill-rule:nonzero;stroke:none"
         id="path3694"
         inkscape:connector-curvature="0" /><path
         d="m 183.6045,20.4772 0.103,-0.938 0.479,0.066 -0.096,0.872 z"
         style="fill:#454547;fill-opacity:1;fill-rule:nonzero;stroke:none"
         id="path3698"
         inkscape:connector-curvature="0" /><path
         d="m 185.9396,20.4772 h -0.486 l 0.061,-0.553 c 0.036,-0.326 -0.023,-0.491 -0.207,-0.588 l -0.468,1.141 h -0.503 l 0.527,-1.255 c -0.11,-0.015 -0.234,-0.028 -0.373,-0.043 l 0.074,-0.358 c 1.24,0.049 1.507,0.458 1.436,1.103 z"
         style="fill:#454547;fill-opacity:1;fill-rule:nonzero;stroke:none"
         id="path3702"
         inkscape:connector-curvature="0" /><path
         d="m 187.0741,20.4772 h -0.863 l 0.083,-0.758 c 0.057,-0.512 0.41,-0.815 0.953,-0.815 0.537,0 0.829,0.303 0.773,0.815 -0.055,0.503 -0.38,0.758 -0.946,0.758 m 0.132,-1.201 c -0.249,0 -0.395,0.165 -0.426,0.443 l -0.042,0.385 h 0.377 c 0.268,0 0.391,-0.131 0.419,-0.385 0.031,-0.278 -0.085,-0.443 -0.328,-0.443"
         style="fill:#454547;fill-opacity:1;fill-rule:nonzero;stroke:none"
         id="path3706"
         inkscape:connector-curvature="0" /><path
         d="m 188.1796,20.4772 0.17,-1.542 h 0.485 l -0.169,1.542 z"
         style="fill:#454547;fill-opacity:1;fill-rule:nonzero;stroke:none"
         id="path3710"
         inkscape:connector-curvature="0" /><path
         d="m 189.8844,20.0298 c -0.034,0.306 -0.186,0.447 -0.546,0.447 h -0.277 l 0.041,-0.373 h 0.125 c 0.132,0 0.169,-0.048 0.185,-0.195 l 0.066,-0.601 h -0.419 l 0.041,-0.373 h 0.904 z"
         style="fill:#454547;fill-opacity:1;fill-rule:nonzero;stroke:none"
         id="path3714"
         inkscape:connector-curvature="0" /><path
         d="m 176.6003,19.3075 h -0.042 l -0.08,0.722 c -0.033,0.306 -0.186,0.448 -0.546,0.448 h -0.832 l 0.041,-0.373 h 0.681 c 0.131,0 0.168,-0.049 0.184,-0.195 l 0.066,-0.602 h -0.334 -0.567 l 0.041,-0.373 h 0.567 0.82 0.236 l -0.041,0.373 z"
         style="fill:#454547;fill-opacity:1;fill-rule:nonzero;stroke:none"
         id="path3718"
         inkscape:connector-curvature="0" /><path
         d="m 167.5319,19.3075 h -0.042 l -0.08,0.722 c -0.033,0.306 -0.186,0.448 -0.546,0.448 h -0.832 l 0.041,-0.373 h 0.681 c 0.131,0 0.168,-0.049 0.184,-0.195 l 0.066,-0.602 h -0.334 -0.567 l 0.041,-0.373 h 0.567 0.82 0.236 l -0.041,0.373 z"
         style="fill:#454547;fill-opacity:1;fill-rule:nonzero;stroke:none"
         id="path3722"
         inkscape:connector-curvature="0" /><path
         d="m 174.2882,20.4772 h -0.972 l 0.041,-0.373 h 0.821 c 0.131,0 0.168,-0.049 0.184,-0.195 l 0.108,-0.974 h 0.485 l -0.121,1.095 c -0.033,0.306 -0.186,0.447 -0.546,0.447"
         style="fill:#454547;fill-opacity:1;fill-rule:nonzero;stroke:none"
         id="path3726"
         inkscape:connector-curvature="0" /><path
         d="m 178.0835,20.4772 h -1.147 l 0.001,-0.01 -0.029,0.01 0.17,-1.542 h 0.486 l -0.129,1.169 h 0.266 0.272 c 0.131,0 0.168,-0.049 0.184,-0.195 l 0.108,-0.974 h 0.485 l -0.121,1.095 c -0.033,0.306 -0.186,0.447 -0.546,0.447"
         style="fill:#454547;fill-opacity:1;fill-rule:nonzero;stroke:none"
         id="path3730"
         inkscape:connector-curvature="0" /><path
         d="m 172.6092,20.4772 h -1.042 l 0.041,-0.373 h 0.891 c 0.131,0 0.168,-0.049 0.184,-0.195 l 0.108,-0.974 h 0.485 l -0.121,1.095 c -0.033,0.306 -0.186,0.447 -0.546,0.447"
         style="fill:#454547;fill-opacity:1;fill-rule:nonzero;stroke:none"
         id="path3734"
         inkscape:connector-curvature="0" /><path
         d="m 164.2536,19.7342 0.088,-0.799 h 0.486 l -0.095,0.856 z"
         style="fill:#454547;fill-opacity:1;fill-rule:nonzero;stroke:none"
         id="path3738"
         inkscape:connector-curvature="0" /><path
         d="m 165.211,20.4772 h -1.042 l 0.041,-0.373 h 0.891 c 0.131,0 0.168,-0.049 0.184,-0.195 l 0.108,-0.974 h 0.485 l -0.121,1.095 c -0.033,0.306 -0.186,0.447 -0.546,0.447"
         style="fill:#454547;fill-opacity:1;fill-rule:nonzero;stroke:none"
         id="path3742"
         inkscape:connector-curvature="0" /><path
         d="m 201.9143,29.2744 c -0.464,0.443 -1.137,0.664 -2.019,0.664 h -4.899 l 0.237,-2.153 h 4.068 c 0.194,0 0.341,-0.046 0.438,-0.14 0.097,-0.093 0.157,-0.237 0.179,-0.433 l 0.636,-5.791 h 2.847 l -0.66,6.001 c -0.087,0.792 -0.363,1.409 -0.827,1.852"
         style="fill:#234d93;fill-opacity:1;fill-rule:nonzero;stroke:none"
         id="path3746"
         inkscape:connector-curvature="0" /><path
         d="m 193.7672,29.2744 c -0.464,0.443 -1.137,0.664 -2.019,0.664 h -4.665 l 0.236,-2.153 h 3.835 c 0.194,0 0.341,-0.046 0.438,-0.14 0.097,-0.093 0.157,-0.237 0.179,-0.433 l 0.911,-8.289 h 2.846 l -0.934,8.499 c -0.087,0.792 -0.363,1.409 -0.827,1.852"
         style="fill:#234d93;fill-opacity:1;fill-rule:nonzero;stroke:none"
         id="path3750"
         inkscape:connector-curvature="0" /><path
         d="m 210.6845,27.7857 h 1.037 l -0.237,2.153 h -8.4 l 0.236,-2.153 h 4.191 c -0.21,-0.273 -0.219,-0.649 -0.171,-1.107 l 0.601,-5.253 h 2.829 l -0.533,5.597 c -0.023,0.196 -0.162,0.763 0.447,0.763"
         style="fill:#234d93;fill-opacity:1;fill-rule:nonzero;stroke:none"
         id="path3754"
         inkscape:connector-curvature="0" /><path
         d="m 176.3044,29.2744 c -0.464,0.443 -1.142,0.664 -2.035,0.664 h -2.135 l 0.238,-2.167 h 1.305 c 0.205,0 0.351,-0.046 0.438,-0.139 0.087,-0.094 0.142,-0.238 0.163,-0.434 l 0.175,-1.36 c 0.013,-0.098 -0.009,-0.197 -0.061,-0.284 -0.591,-1.007 -1.651,-1.427 -2.898,-1.545 l 0.238,-2.596 c 1.132,0.366 2.249,0.764 3.033,1.955 l -0.005,0.082 0.013,-0.104 0.403,-1.921 h 2.672 l -0.717,5.997 c -0.087,0.792 -0.363,1.409 -0.827,1.852"
         style="fill:#309d75;fill-opacity:1;fill-rule:nonzero;stroke:none"
         id="path3758"
         inkscape:connector-curvature="0" /><path
         d="m 181.3906,25.2189 2.966,-3.793 h 3.123 l -2.812,3.318 c 0.184,0.057 0.354,0.127 0.508,0.211 0.47,0.256 0.805,0.61 1.007,1.063 0.201,0.451 0.27,0.971 0.205,1.558 l -0.259,2.363 h -2.785 l 0.24,-2.181 c 0.041,-0.373 0.043,-0.673 0.006,-0.902 -0.034,-0.216 -0.121,-0.377 -0.259,-0.484 l -2.864,3.567 h -3.123 l 2.692,-3.066 c -0.192,-0.059 -0.37,-0.131 -0.531,-0.219 -0.474,-0.261 -0.812,-0.618 -1.013,-1.07 -0.202,-0.452 -0.27,-0.971 -0.206,-1.558 l 0.286,-2.6 h 2.8 l -0.266,2.418 c -0.04,0.363 -0.041,0.657 -0.004,0.881 0.036,0.222 0.133,0.387 0.289,0.494"
         style="fill:#309d75;fill-opacity:1;fill-rule:nonzero;stroke:none"
         id="path3762"
         inkscape:connector-curvature="0" /><path
         d="m 170.6339,27.7857 h 1.037 l -0.237,2.153 h -8.4 l 0.236,-2.153 h 4.191 c -0.21,-0.273 -0.219,-0.649 -0.171,-1.107 l 0.601,-5.253 h 2.829 l -0.533,5.597 c -0.023,0.196 -0.163,0.763 0.447,0.763"
         style="fill:#309d75;fill-opacity:1;fill-rule:nonzero;stroke:none"
         id="path3766"
         inkscape:connector-curvature="0" /><path
         d="m 198.9013,56.317 c 0.729,0 1.32,0.545 1.32,1.218 v 1.433 h -8.093 c -1.368,0 -2.648,-0.625 -3.417,-1.67 l -7.978,-11.192 h 9.892 l 1.779,2.525 h -4.158 l -0.563,0.766 h 10.84 0.378 c 0.729,0 1.32,0.546 1.32,1.218 v 1.478 h -9.837 l 0.562,0.764 h 7.955 c 0.729,0 1.32,0.545 1.32,1.218 v 1.478 h -7.291 l 0.562,0.764 z"
         style="fill:#309d75;fill-opacity:1;fill-rule:nonzero;stroke:none"
         id="path3770"
         inkscape:connector-curvature="0" /></g></g></svg>