<svg width="25" height="25" viewBox="0 0 25 25" fill="none" xmlns="http://www.w3.org/2000/svg">
<path fill-rule="evenodd" clip-rule="evenodd" d="M17.907 20.8081H7.87199C7.86795 21.6124 7.76957 22 7.09596 22C6.42236 22 6.29748 21.6124 6.29226 20.8081H4.82305C4.29637 18.5766 4.21321 8.62511 4.82305 5.49274C4.84278 5.39143 4.86301 5.29303 4.88382 5.19744C4.29985 5.14865 3.81847 5.45652 3.84076 5.65258V8.21225C3.89329 8.65855 3.70942 8.79201 3.61092 8.80294H3.19333H2.77573C2.27666 8.27788 2.03907 7.04004 2.00414 6.46648C1.89503 4.67483 3.96701 4.23026 5.11811 4.32102C5.79897 2.26545 7.07593 2 10.3948 2H15.2597C18.9084 2.0002 20.0071 2.32496 20.6477 4.33037C21.7742 4.20534 23.9728 4.62227 23.8605 6.46648C23.8256 7.04004 23.588 8.27788 23.0889 8.80294H22.6713H22.2537C22.1552 8.79201 21.9714 8.65855 22.0239 8.21225V5.65258C22.0474 5.44543 21.5087 5.11348 20.8808 5.20923C20.9015 5.30114 20.922 5.39561 20.9423 5.49274C21.4524 7.93211 21.3858 16.7194 21.2888 20.8081H19.4867C19.4827 21.6124 19.3843 22 18.7107 22C18.0371 22 17.9122 21.6124 17.907 20.8081ZM20.2584 13.4183H5.59442C5.59442 9.25312 5.96865 6.88872 6.27357 5.0192C6.51751 3.52359 8.09386 3.40628 8.85154 3.42461C10.7504 3.37421 15.0747 3.4796 17.1814 3.53458C19.2882 3.58957 19.6901 4.57931 19.7455 5.0192L20.2584 13.4183ZM15.7786 18.0886H9.48837V19.5862H15.7786V18.0886ZM8.29023 15.8419C8.29023 16.5864 7.68675 17.1898 6.94233 17.1898C6.1979 17.1898 5.59442 16.5864 5.59442 15.8419C5.59442 15.0975 6.1979 14.494 6.94233 14.494C7.68675 14.494 8.29023 15.0975 8.29023 15.8419ZM18.3247 17.1898C19.0691 17.1898 19.6726 16.5864 19.6726 15.8419C19.6726 15.0975 19.0691 14.494 18.3247 14.494C17.5802 14.494 16.9767 15.0975 16.9767 15.8419C16.9767 16.5864 17.5802 17.1898 18.3247 17.1898Z" fill="#646464"/>
<rect x="9.48828" y="18.0885" width="6.29021" height="1.49767" fill="white"/>
<circle cx="6.94214" cy="15.8419" r="1.3479" fill="white"/>
<circle cx="6.94214" cy="15.8419" r="1.3479" fill="white"/>
<circle cx="6.94214" cy="15.8419" r="1.3479" fill="white"/>
<circle cx="6.94214" cy="15.8419" r="1.3479" fill="white"/>
<circle cx="6.94214" cy="15.8419" r="1.3479" fill="white"/>
<circle cx="18.3247" cy="15.8419" r="1.3479" fill="white"/>
<path d="M20.2582 13.4183H5.59424C5.59424 9.25312 5.96846 6.88872 6.27338 5.0192C6.51732 3.52359 8.09367 3.40628 8.85135 3.42461C10.7502 3.37421 15.0745 3.4796 17.1813 3.53458C19.288 3.58957 19.6899 4.57931 19.7454 5.0192L20.2582 13.4183Z" fill="white"/>
</svg>
