<svg aria-hidden="true" focusable="false"
      xmlns="http://www.w3.org/2000/svg"
      xmlns:xlink="http://www.w3.org/1999/xlink"
      xml:space="preserve"
      viewBox="0 0 3000 2000">
      <path
        d="M545.083 872.078c395.959 68.345 163.799-687.456 703.207-366.643 214.514 127.582 523.395-26.81 819.194 57.577 271.656 77.499 204.737 331.789 178.452 414.99-53.095 168.065 211.342 101.035 364.619 173.244 240.431 113.267 215.105 570.927-12.032 572.829-227.138 1.903-2031.443-4.8-2031.443-4.8s-99.128-64.144-151.759-196.351c-107.895-271.024-218.9-711.027 129.762-650.846z"
        style="fill: var(--homepage-bus-cloud)"
      />
      <path
        d="M2181.491 732.277V618.946h-34.404V424.079h-184.46v194.867h-172.456V351.841l-190.304-72.029v227.73h-43.397V204.27l-190.304 63.069v455.515h-240.678v269.058h-89.927v67.781h-206.56V942.975H710.407v-317.16H563.908V1720.743H2328.466V732.277z"
        style="fill: #d5e7f7"
      />
      <path
        d="M1394.605 290.401h128.376v47.012h-128.376zM1394.605 378.719h128.376v47.012h-128.376zM1394.605 458.176h128.376v47.012h-128.376zM563.908 839.49H713.12v72.567H563.908zM563.908 1062.236h147.787v72.567H563.908zM563.908 1171.856h147.787v72.567H563.908zM561.5 1286.542h147.787v72.567H561.5zM561.5 1398.858h147.787v72.567H561.5zM561.5 1513.543h147.787v72.567H561.5zM1624.927 458.176h135.023v47.012h-135.023zM1624.927 379.436h135.023v47.012h-135.023zM1391.336 535.217h368.615v47.013h-368.615zM1391.336 605.906h368.615v47.012h-368.615zM1391.336 676.117h368.615v45.212h-368.615zM563.908 952.616h147.787v72.567H563.908zM1162.342 766.95h32.261v45.472h-32.261zM1222.67 766.95h32.261v45.472h-32.261zM1281.648 766.95h32.261v45.472h-32.261zM1337.568 766.95h32.261v45.472h-32.261zM1394.561 766.95h32.261v45.472h-32.261zM1452.208 766.95h32.261v45.472h-32.261zM1512.537 766.95h32.26v45.472h-32.26zM1571.514 766.95h32.261v45.472h-32.261zM1627.435 766.95h32.26v45.472h-32.26zM1684.428 766.95h32.261v45.472h-32.261zM1743.82 766.95h32.261v45.472h-32.261zM1804.149 766.95h32.26v45.472h-32.26zM1863.127 766.95h32.26v45.472h-32.26zM1919.047 766.95h32.26v45.472h-32.26zM1976.04 766.95h32.262v45.472h-32.262zM2033.687 766.95h32.261v45.472h-32.261zM2094.016 766.95h32.26v45.472h-32.26zM2152.994 766.95h32.26v45.472h-32.26zM2208.914 766.95h32.261v45.472h-32.261zM2265.907 766.95h32.26v45.472h-32.26zM1162.342 847.192h32.261v45.472h-32.261zM1222.67 847.192h32.261v45.472h-32.261zM1281.648 847.192h32.261v45.472h-32.261zM1337.568 847.192h32.261v45.472h-32.261zM1394.561 847.192h32.261v45.472h-32.261zM1452.208 847.192h32.261v45.472h-32.261zM1512.537 847.192h32.26v45.472h-32.26zM1571.514 847.192h32.261v45.472h-32.261zM1627.435 847.192h32.26v45.472h-32.26zM1684.428 847.192h32.261v45.472h-32.261zM1743.82 847.192h32.261v45.472h-32.261zM1804.149 847.192h32.26v45.472h-32.26zM1863.127 847.192h32.26v45.472h-32.26zM1919.047 847.192h32.26v45.472h-32.26zM1976.04 847.192h32.262v45.472h-32.262zM2033.687 847.192h32.261v45.472h-32.261zM2094.016 847.192h32.26v45.472h-32.26zM2152.994 847.192h32.26v45.472h-32.26zM2208.914 847.192h32.261v45.472h-32.261zM2265.907 847.192h32.26v45.472h-32.26zM1162.342 926.205h32.261v45.472h-32.261zM1222.67 926.205h32.261v45.472h-32.261zM1281.648 926.205h32.261v45.472h-32.261zM1337.568 926.205h32.261v45.472h-32.261zM1394.561 926.205h32.261v45.472h-32.261zM1452.208 926.205h32.261v45.472h-32.261zM1512.537 926.205h32.26v45.472h-32.26zM1571.514 926.205h32.261v45.472h-32.261zM1627.435 926.205h32.26v45.472h-32.26zM1684.428 926.205h32.261v45.472h-32.261zM1743.82 926.205h32.261v45.472h-32.261zM1804.149 926.205h32.26v45.472h-32.26zM1863.127 926.205h32.26v45.472h-32.26zM1919.047 926.205h32.26v45.472h-32.26zM1976.04 926.205h32.262v45.472h-32.262zM2033.687 926.205h32.261v45.472h-32.261zM2094.016 926.205h32.26v45.472h-32.26zM2152.994 926.205h32.26v45.472h-32.26zM2208.914 926.205h32.261v45.472h-32.261zM2265.907 926.205h32.26v45.472h-32.26zM1162.342 1010.152h32.261v45.472h-32.261zM1222.67 1010.152h32.261v45.472h-32.261zM1281.648 1010.152h32.261v45.472h-32.261zM1337.568 1010.152h32.261v45.472h-32.261zM1394.561 1010.152h32.261v45.472h-32.261zM1452.208 1010.152h32.261v45.472h-32.261zM1512.537 1010.152h32.26v45.472h-32.26zM1571.514 1010.152h32.261v45.472h-32.261zM1627.435 1010.152h32.26v45.472h-32.26zM1684.428 1010.152h32.261v45.472h-32.261zM1743.82 1010.152h32.261v45.472h-32.261zM1804.149 1010.152h32.26v45.472h-32.26zM1863.127 1010.152h32.26v45.472h-32.26zM1919.047 1010.152h32.26v45.472h-32.26zM1976.04 1010.152h32.262v45.472h-32.262zM2033.687 1010.152h32.261v45.472h-32.261zM2094.016 1010.152h32.26v45.472h-32.26zM2152.994 1010.152h32.26v45.472h-32.26zM2208.914 1010.152h32.261v45.472h-32.261zM2265.907 1010.152h32.26v45.472h-32.26zM1162.342 1090.395h32.261v45.471h-32.261zM1222.67 1090.395h32.261v45.471h-32.261zM1281.648 1090.395h32.261v45.471h-32.261zM1337.568 1090.395h32.261v45.471h-32.261zM1394.561 1090.395h32.261v45.471h-32.261zM1452.208 1090.395h32.261v45.471h-32.261zM1512.537 1090.395h32.26v45.471h-32.26zM1571.514 1090.395h32.261v45.471h-32.261zM1627.435 1090.395h32.26v45.471h-32.26zM1684.428 1090.395h32.261v45.471h-32.261zM1743.82 1090.395h32.261v45.471h-32.261zM1804.149 1090.395h32.26v45.471h-32.26zM1863.127 1090.395h32.26v45.471h-32.26zM1919.047 1090.395h32.26v45.471h-32.26zM1976.04 1090.395h32.262v45.471h-32.262zM2033.687 1090.395h32.261v45.471h-32.261zM2094.016 1090.395h32.26v45.471h-32.26zM2208.914 1090.395h32.261v45.471h-32.261zM2152.993 1090.395h32.262v45.471h-32.262zM2265.907 1090.395h32.26v45.471h-32.26zM1162.342 1169.407h32.261v45.471h-32.261zM1222.67 1169.407h32.261v45.471h-32.261zM1281.648 1169.407h32.261v45.471h-32.261zM1337.568 1169.407h32.261v45.471h-32.261zM1394.561 1169.407h32.261v45.471h-32.261zM1452.208 1169.407h32.261v45.471h-32.261zM1512.537 1169.407h32.26v45.471h-32.26zM1571.514 1169.407h32.261v45.471h-32.261zM1627.435 1169.407h32.26v45.471h-32.26zM1684.428 1169.407h32.261v45.471h-32.261zM1743.82 1169.407h32.261v45.471h-32.261zM1804.149 1169.407h32.26v45.471h-32.26zM1863.127 1169.407h32.26v45.471h-32.26zM1919.047 1169.407h32.26v45.471h-32.26zM1976.04 1169.407h32.262v45.471h-32.262zM2033.687 1169.407h32.261v45.471h-32.261zM2094.016 1169.407h32.26v45.471h-32.26zM2208.914 1169.407h32.261v45.471h-32.261zM2265.907 1169.407h32.26v45.471h-32.26zM881.478 772.769v-94.584h3.887v94.584h53.227v116.719h-109.61V772.769z"
        style="fill: #c4d9ed"
      />
      <path
        d="M563.908 698.516v-72.567h30.839v-31.581h3.886v31.581h135.755v-31.581h3.887v31.581h27.283v317.127h-54.49v-136.64h-147.16V733.87h147.16v-35.354z"
        style="fill: #c4d9ed"
      />
      <path
        d="M2533.402 1002.442h7.605v97.317h-7.605z"
        style="fill: #d5e7f7"
      />
      <path
        d="M789.813 1286.542h738.855v432.193H789.813z"
        style="fill: #c4d9ed"
        transform="rotate(-180 1159.24 1502.638)"
      />
      <path
        d="M1460.291 1330.846h39.394v60.147h-39.394z"
        style="fill: #d5e7f7"
        transform="rotate(-180 1479.988 1360.92)"
      />
      <path
        d="M1390.826 1330.846h39.394v60.147h-39.394z"
        style="fill: #d5e7f7"
        transform="rotate(-180 1410.522 1360.92)"
      />
      <path
        d="M1320.897 1330.846h39.394v60.147h-39.394z"
        style="fill: #d5e7f7"
        transform="rotate(-180 1340.594 1360.92)"
      />
      <path
        d="M1251.432 1330.846h39.394v60.147h-39.394z"
        style="fill: #d5e7f7"
        transform="rotate(-180 1271.129 1360.92)"
      />
      <path
        d="M1179.888 1330.846h39.394v60.147h-39.394z"
        style="fill: #d5e7f7"
        transform="rotate(-180 1199.585 1360.92)"
      />
      <path
        d="M1110.422 1330.846h39.394v60.147h-39.394z"
        style="fill: #d5e7f7"
        transform="rotate(-180 1130.12 1360.92)"
      />
      <path
        d="M1040.494 1330.846h39.394v60.147h-39.394z"
        style="fill: #d5e7f7"
        transform="rotate(-180 1060.19 1360.92)"
      />
      <path
        d="M971.029 1330.846h39.394v60.147h-39.394z"
        style="fill: #d5e7f7"
        transform="rotate(-180 990.725 1360.92)"
      />
      <path
        d="M898.174 1330.846h39.394v60.147h-39.394z"
        style="fill: #d5e7f7"
        transform="rotate(-180 917.871 1360.92)"
      />
      <path
        d="M828.709 1330.846h39.394v60.147h-39.394z"
        style="fill: #d5e7f7"
        transform="rotate(-180 848.406 1360.92)"
      />
      <path
        d="M1460.291 1419.796h39.394v60.147h-39.394z"
        style="fill: #d5e7f7"
        transform="rotate(-180 1479.988 1449.87)"
      />
      <path
        d="M1390.826 1419.796h39.394v60.147h-39.394z"
        style="fill: #d5e7f7"
        transform="rotate(-180 1410.522 1449.87)"
      />
      <path
        d="M1320.897 1419.796h39.394v60.147h-39.394z"
        style="fill: #d5e7f7"
        transform="rotate(-180 1340.594 1449.87)"
      />
      <path
        d="M1251.432 1419.796h39.394v60.147h-39.394z"
        style="fill: #d5e7f7"
        transform="rotate(-180 1271.129 1449.87)"
      />
      <path
        d="M1179.888 1419.796h39.394v60.147h-39.394z"
        style="fill: #d5e7f7"
        transform="rotate(-180 1199.585 1449.87)"
      />
      <path
        d="M1110.422 1419.796h39.394v60.147h-39.394z"
        style="fill: #d5e7f7"
        transform="rotate(-180 1130.12 1449.87)"
      />
      <path
        d="M1040.494 1419.796h39.394v60.147h-39.394z"
        style="fill: #d5e7f7"
        transform="rotate(-180 1060.19 1449.87)"
      />
      <path
        d="M971.029 1419.796h39.394v60.147h-39.394z"
        style="fill: #d5e7f7"
        transform="rotate(-180 990.725 1449.87)"
      />
      <path
        d="M898.174 1419.796h39.394v60.147h-39.394z"
        style="fill: #d5e7f7"
        transform="rotate(-180 917.871 1449.87)"
      />
      <path
        d="M828.709 1419.796h39.394v60.147h-39.394z"
        style="fill: #d5e7f7"
        transform="rotate(-180 848.406 1449.87)"
      />
      <path
        d="M1460.291 1515.346h39.394v60.147h-39.394z"
        style="fill: #d5e7f7"
        transform="rotate(-180 1479.988 1545.419)"
      />
      <path
        d="M1390.826 1515.346h39.394v60.147h-39.394z"
        style="fill: #d5e7f7"
        transform="rotate(-180 1410.522 1545.419)"
      />
      <path
        d="M1320.897 1515.346h39.394v60.147h-39.394z"
        style="fill: #d5e7f7"
        transform="rotate(-180 1340.594 1545.419)"
      />
      <path
        d="M1251.432 1515.346h39.394v60.147h-39.394z"
        style="fill: #d5e7f7"
        transform="rotate(-180 1271.129 1545.419)"
      />
      <path
        d="M1179.888 1515.346h39.394v60.147h-39.394z"
        style="fill: #d5e7f7"
        transform="rotate(-180 1199.585 1545.419)"
      />
      <path
        d="M1110.422 1515.346h39.394v60.147h-39.394z"
        style="fill: #d5e7f7"
        transform="rotate(-180 1130.12 1545.419)"
      />
      <path
        d="M1040.494 1515.346h39.394v60.147h-39.394z"
        style="fill: #d5e7f7"
        transform="rotate(-180 1060.19 1545.419)"
      />
      <path
        d="M971.029 1515.346h39.394v60.147h-39.394z"
        style="fill: #d5e7f7"
        transform="rotate(-180 990.725 1545.419)"
      />
      <path
        d="M898.174 1515.346h39.394v60.147h-39.394z"
        style="fill: #d5e7f7"
        transform="rotate(-180 917.871 1545.419)"
      />
      <path
        d="M828.709 1515.346h39.394v60.147h-39.394z"
        style="fill: #d5e7f7"
        transform="rotate(-180 848.406 1545.419)"
      />
      <path
        d="M1460.291 1604.295h39.394v60.147h-39.394z"
        style="fill: #d5e7f7"
        transform="rotate(-180 1479.988 1634.369)"
      />
      <path
        d="M1390.826 1604.295h39.394v60.147h-39.394z"
        style="fill: #d5e7f7"
        transform="rotate(-180 1410.522 1634.369)"
      />
      <path
        d="M1320.897 1604.295h39.394v60.147h-39.394z"
        style="fill: #d5e7f7"
        transform="rotate(-180 1340.594 1634.369)"
      />
      <path
        d="M1251.432 1604.295h39.394v60.147h-39.394z"
        style="fill: #d5e7f7"
        transform="rotate(-180 1271.129 1634.369)"
      />
      <path
        d="M1179.888 1604.295h39.394v60.147h-39.394z"
        style="fill: #d5e7f7"
        transform="rotate(-180 1199.585 1634.369)"
      />
      <path
        d="M1110.422 1604.295h39.394v60.147h-39.394z"
        style="fill: #d5e7f7"
        transform="rotate(-180 1130.12 1634.369)"
      />
      <path
        d="M1040.494 1604.295h39.394v60.147h-39.394z"
        style="fill: #d5e7f7"
        transform="rotate(-180 1060.19 1634.369)"
      />
      <path
        d="M971.029 1604.295h39.394v60.147h-39.394z"
        style="fill: #d5e7f7"
        transform="rotate(-180 990.725 1634.369)"
      />
      <path
        d="M898.174 1604.295h39.394v60.147h-39.394z"
        style="fill: #d5e7f7"
        transform="rotate(-180 917.871 1634.369)"
      />
      <path
        d="M828.709 1604.295h39.394v60.147h-39.394z"
        style="fill: #d5e7f7"
        transform="rotate(-180 848.406 1634.369)"
      />
      <path
        d="M1044.347 1306.279H890.168v-134.423l154.179 59.028zM1804.231 1718.735h352.834v-383.809l-352.834 122.144z"
        style="fill: #c4d9ed"
      />
      <path
        d="M1813.55 1469.777h334.197v11.86H1813.55z"
        style="fill: #d5e7f7"
        transform="rotate(-180 1980.648 1475.707)"
      />
      <path
        d="M1813.55 1507.898h334.197v11.86H1813.55z"
        style="fill: #d5e7f7"
        transform="rotate(-180 1980.648 1513.828)"
      />
      <path
        d="M1813.55 1546.02h334.197v11.86H1813.55z"
        style="fill: #d5e7f7"
        transform="rotate(-180 1980.648 1551.95)"
      />
      <path
        d="M1813.55 1584.141h334.197v11.86H1813.55z"
        style="fill: #d5e7f7"
        transform="rotate(-180 1980.648 1590.07)"
      />
      <path
        d="M1813.55 1622.262h334.197v11.86H1813.55z"
        style="fill: #d5e7f7"
        transform="rotate(-180 1980.648 1628.192)"
      />
      <path
        d="M1813.55 1660.383h334.197v11.86H1813.55z"
        style="fill: #d5e7f7"
        transform="rotate(-180 1980.648 1666.313)"
      />
      <path
        d="M860.518 1171.856h29.65v114.686h-29.65z"
        style="fill: #c4d9ed"
        transform="rotate(-180 875.343 1229.199)"
      />
      <path
        d="M933.119 1219.024h39.394v60.147h-39.394z"
        style="fill: #d5e7f7"
        transform="rotate(90 952.816 1249.097)"
      />
      <path
        d="M2105.063 440.079h20.446v173.452h-20.446z"
        style="fill: #c4d9ed"
        transform="rotate(-180 2115.286 526.805)"
      />
      <path
        d="M2064.4 440.079h20.446v173.452H2064.4z"
        style="fill: #c4d9ed"
        transform="rotate(-180 2074.623 526.805)"
      />
      <path
        d="M2024.289 440.079h20.446v173.452h-20.446z"
        style="fill: #c4d9ed"
        transform="rotate(-180 2034.512 526.805)"
      />
      <path
        d="M1982.772 440.079h20.446v173.452h-20.446z"
        style="fill: #c4d9ed"
        transform="rotate(-180 1992.995 526.805)"
      />
      <path
        d="M841.815 1458.833h1680.787v131.238H841.815z"
        style="fill: #1c2948"
      />
      <circle
        cx={2337.756}
        cy={1611.27}
        r={109.301}
        style="fill: #2d3a62"
      />
      <path
        d="M2337.756 1543.55c-37.401 0-67.72 30.319-67.72 67.72s30.319 67.72 67.72 67.72c37.401 0 67.72-30.319 67.72-67.72s-30.319-67.72-67.72-67.72zm9.276 7.421c14.748 2.25 27.746 9.792 37.03 20.615l-23.47 14.495a33.94 33.94 0 0 0-13.56-7.52v-27.59zm-18.553 0v27.59a33.94 33.94 0 0 0-13.56 7.52l-23.47-14.495c9.284-10.822 22.283-18.365 37.03-20.615zm-46.966 83.951a60.792 60.792 0 0 1-4.757-23.651 60.801 60.801 0 0 1 4.881-23.938l23.459 14.489a33.99 33.99 0 0 0-.088 18.59l-23.495 14.51zm46.966 36.647c-14.856-2.267-27.938-9.901-37.235-20.852l23.442-14.479a33.945 33.945 0 0 0 13.792 7.74v27.591zm-6.098-60.299c0-8.491 6.884-15.375 15.375-15.375s15.375 6.884 15.375 15.375-6.884 15.375-15.375 15.375-15.375-6.884-15.375-15.375zm24.651 60.299v-27.59a33.939 33.939 0 0 0 13.792-7.74l23.442 14.479c-9.295 10.95-22.378 18.584-37.234 20.851zm23.471-51.159a33.98 33.98 0 0 0-.088-18.59l23.459-14.489a60.806 60.806 0 0 1 4.882 23.938 60.81 60.81 0 0 1-4.757 23.651l-23.496-14.51z"
        style="fill: #98bdf4"
      />
      <circle
        cx={977.756}
        cy={1611.27}
        r={109.301}
        style="fill: #2d3a62"
      />
      <path
        d="M977.756 1543.55c-37.401 0-67.72 30.319-67.72 67.72s30.319 67.72 67.72 67.72c37.401 0 67.72-30.319 67.72-67.72s-30.319-67.72-67.72-67.72zm9.276 7.421c14.748 2.25 27.747 9.792 37.03 20.615l-23.47 14.495a33.94 33.94 0 0 0-13.56-7.52v-27.59zm-18.553 0v27.59a33.94 33.94 0 0 0-13.56 7.52l-23.47-14.495c9.284-10.822 22.283-18.365 37.03-20.615zm-46.966 83.95a60.792 60.792 0 0 1-4.757-23.651 60.801 60.801 0 0 1 4.881-23.938l23.459 14.489a33.99 33.99 0 0 0-.088 18.59l-23.495 14.51zm46.966 36.648c-14.856-2.267-27.938-9.901-37.235-20.852l23.442-14.479a33.945 33.945 0 0 0 13.792 7.74v27.591zm-6.098-60.299c0-8.491 6.884-15.375 15.375-15.375s15.375 6.884 15.375 15.375-6.884 15.375-15.375 15.375-15.375-6.884-15.375-15.375zm24.651 60.299v-27.59a33.939 33.939 0 0 0 13.792-7.74l23.442 14.479c-9.295 10.949-22.378 18.584-37.234 20.851zm23.471-51.159a34.02 34.02 0 0 0 1.253-9.14 34 34 0 0 0-1.341-9.45l23.46-14.489a60.805 60.805 0 0 1 4.881 23.938 60.81 60.81 0 0 1-4.757 23.651l-23.496-14.51z"
        style="fill: #98bdf4"
      />
      <path
        d="M1550.427 918.783h-956v-29.461c0-13.284 10.769-24.052 24.052-24.052h881.942a24.05 24.05 0 0 1 19.699 10.252l30.307 43.261z"
        style="fill: #a8d29f"
      />
      <path
        d="M594.427 901.27v17.513h956l-12.269-17.513z"
        style="fill: #82b378"
      />
      <path
        d="M2547.727 918.783H535.087c-34.124 0-61.787 27.663-61.787 61.787v562.537c0 15.162 10.818 28.166 25.727 30.926l169.4 31.361h188.192c0-66.274 53.726-120 120-120s120.001 53.726 120.001 120h1119.999c0-66.274 53.726-120 120-120s120 53.726 120 120h122.275c16.91 0 30.619-13.709 30.619-30.619V980.57c.001-34.124-27.662-61.787-61.786-61.787z"
        style="fill: #a8d29f"
      />
      <path
        d="M2435.69 1537.673c13.201 19.275 20.929 42.594 20.929 67.72h122.275c16.911 0 30.619-13.709 30.619-30.619 0-20.49-16.611-37.101-37.101-37.101H2435.69zM473.3 1537.673v5.434c0 15.162 10.818 28.166 25.727 30.926l169.4 31.361h188.192c0-25.126 7.728-48.445 20.929-67.72H473.3zM1075.691 1537.673c13.201 19.275 20.929 42.594 20.929 67.72h1119.999c0-25.126 7.728-48.445 20.929-67.72H1075.691z"
        style="fill: #82b378"
      />
      <path
        d="M460.427 1372.603h27.333v144.667h-27.333z"
        style="fill: #b64c41"
      />
      <path
        d="M460.427 1333.374h27.333v27.333h-27.333z"
        style="fill: #f1a34f"
      />
      <path
        d="M2595.427 1365.27h14.087v130.822h-14.087z"
        style="fill: #b64c41"
      />
      <path
        d="M1207.593 1303.332h579.33c11.046 0 20-8.954 20-20V1021.27c0-11.046-8.954-20-20-20h-579.33c-11.046 0-20 8.954-20 20v262.062c0 11.045 8.954 20 20 20zM2171.137 1303.332h213.203c11.046 0 20-8.954 20-20V1021.27c0-11.046-8.954-20-20-20h-213.203c-11.046 0-20 8.954-20 20v262.062c0 11.045 8.954 20 20 20zM2557.649 1303.332h51.865V1021.27c0-11.046-8.954-20-20-20h-145.26c-11.046 0-20 8.954-20 20v148.666c-.001 73.673 59.723 133.396 133.395 133.396z"
        style="fill: #163560"
      />
      <path
        d="M1207.593 1303.332h579.33c11.046 0 20-8.954 20-20V1021.27c0-11.046-8.954-20-20-20h-579.33c-11.046 0-20 8.954-20 20v262.062c0 11.045 8.954 20 20 20zM2171.137 1303.332h213.203c11.046 0 20-8.954 20-20V1021.27c0-11.046-8.954-20-20-20h-213.203c-11.046 0-20 8.954-20 20v262.062c0 11.045 8.954 20 20 20zM2557.649 1303.332h51.865V1021.27c0-11.046-8.954-20-20-20h-145.26c-11.046 0-20 8.954-20 20v148.666c-.001 73.673 59.723 133.396 133.395 133.396z"
        style="fill: #98bdf4"
      />
      <path
        d="M545.988 1303.332h579.331c11.046 0 20-8.954 20-20V1021.27c0-11.046-8.954-20-20-20H545.988c-11.046 0-20 8.954-20 20v262.062c0 11.045 8.954 20 20 20z"
        style="fill: #163560"
      />
      <path
        d="M545.988 1303.332h579.331c11.046 0 20-8.954 20-20V1021.27c0-11.046-8.954-20-20-20H545.988c-11.046 0-20 8.954-20 20v262.062c0 11.045 8.954 20 20 20zM2114.427 1001.27h-268c-11.046 0-20 8.954-20 20v584.123h308V1021.27c0-11.046-8.954-20-20-20z"
        style="fill: #98bdf4"
      />
      <defs>
        <path
          id="a"
          d="M1207.593 1303.332h579.33c11.046 0 20-8.954 20-20V1021.27c0-11.046-8.954-20-20-20h-579.33c-11.046 0-20 8.954-20 20v262.062c0 11.045 8.954 20 20 20z"
        />
      </defs>
      <clipPath id="b">
        <use
          xlinkHref="#a"
          style="overflow: visible"
        />
      </clipPath>
      <path
        d="M1200.931 1468.789h-85.495l376.481-663.355h85.495zM1340.38 1483.979h-85.496l376.481-663.356h85.496zM1591.88 1497.479h-85.496l376.481-663.356h85.496zM1393.427 1496.092h-22.543l376.481-663.356h22.543z"
        style="clip-path: url(#b); fill: #d5e7f7"
      />
      <defs>
        <path
          id="c"
          d="M2171.137 1303.332h213.203c11.046 0 20-8.954 20-20V1021.27c0-11.046-8.954-20-20-20h-213.203c-11.046 0-20 8.954-20 20v262.062c0 11.045 8.954 20 20 20z"
        />
      </defs>
      <clipPath id="d">
        <use
          xlinkHref="#c"
          style="overflow: visible"
        />
      </clipPath>
      <path
        d="M2179.985 1434.621h-85.495l376.481-663.355h85.496zM2233.033 1446.734h-22.543l376.481-663.355h22.543z"
        style="clip-path: url(#d); fill: #d5e7f7"
      />
      <defs>
        <path
          id="e"
          d="M2557.649 1303.332h51.865V1021.27c0-11.046-8.954-20-20-20h-145.26c-11.046 0-20 8.954-20 20v148.666c-.001 73.673 59.723 133.396 133.395 133.396z"
        />
      </defs>
      <clipPath id="f">
        <use
          xlinkHref="#e"
          style="overflow: visible"
        />
      </clipPath>
      <path
        d="M2384.45 1422.508h-42.748l376.482-663.356h42.747zM2437.497 1434.621h-22.542l376.481-663.355h22.543z"
        style="clip-path: url(#f); fill: #d5e7f7"
      />
      <defs>
        <path
          id="g"
          d="M545.988 1303.332h579.331c11.046 0 20-8.954 20-20V1021.27c0-11.046-8.954-20-20-20H545.988c-11.046 0-20 8.954-20 20v262.062c0 11.045 8.954 20 20 20z"
        />
      </defs>
      <clipPath id="h">
        <use
          xlinkHref="#g"
          style="overflow: visible"
        />
      </clipPath>
      <path
        d="M529.931 1461.789h-85.495l376.481-663.355h85.495zM824.931 1461.789h-85.495l376.481-663.355h85.495zM578.946 1461.789h-22.51l376.481-663.355h22.51z"
        style="clip-path: url(#h); fill: #d5e7f7"
      />
      <defs>
        <path
          id="i"
          d="M2114.427 1001.27h-268c-11.046 0-20 8.954-20 20v584.123h308V1021.27c0-11.046-8.954-20-20-20z"
        />
      </defs>
      <clipPath id="j">
        <use
          xlinkHref="#i"
          style="overflow: visible"
        />
      </clipPath>
      <path
        d="M1717.056 1624.033h-85.496l376.481-663.355h85.496zM1770.103 1636.147h-22.543l376.481-663.356h22.543zM1921.521 1611.92h-42.748l376.481-663.355h42.748z"
        style="clip-path: url(#j); fill: #d5e7f7"
      />
      <path
        d="M1971.915 1001.27h16.499v604.123h-16.499zM1125.318 1308.332h-579.33c-13.785 0-25-11.215-25-25V1021.27c0-13.785 11.215-25 25-25h579.33c13.785 0 25 11.215 25 25v262.062c0 13.785-11.215 25-25 25zm-579.33-302.062c-8.271 0-15 6.728-15 15v262.062c0 8.271 6.729 15 15 15h579.33c8.271 0 15-6.729 15-15V1021.27c0-8.272-6.729-15-15-15h-579.33zM1786.923 1308.332h-579.33c-13.785 0-25-11.215-25-25V1021.27c0-13.785 11.215-25 25-25h579.33c13.785 0 25 11.215 25 25v262.062c0 13.785-11.215 25-25 25zm-579.33-302.062c-8.271 0-15 6.728-15 15v262.062c0 8.271 6.729 15 15 15h579.33c8.271 0 15-6.729 15-15V1021.27c0-8.272-6.729-15-15-15h-579.33z"
        style="fill: #163560"
      />
      <path
        d="M2139.427 1610.393h-318V1021.27c0-13.785 11.215-25 25-25h268c13.785 0 25 11.215 25 25v589.123zm-308-10h298V1021.27c0-8.272-6.729-15-15-15h-268c-8.272 0-15 6.728-15 15v579.123zM2384.339 1308.332h-213.202c-13.785 0-25-11.215-25-25V1021.27c0-13.785 11.215-25 25-25h213.202c13.785 0 25 11.215 25 25v262.062c0 13.785-11.214 25-25 25zm-213.202-302.062c-8.271 0-15 6.728-15 15v262.062c0 8.271 6.729 15 15 15h213.202c8.271 0 15-6.729 15-15V1021.27c0-8.272-6.729-15-15-15h-213.202zM2603.773 1308.332h-46.124c-76.312 0-138.396-62.084-138.396-138.396V1021.27c0-13.785 11.215-25 25-25h145.261c13.785 0 25 11.215 25 25v276.32c0 5.923-4.818 10.742-10.741 10.742zm-159.52-302.062c-8.271 0-15 6.728-15 15v148.666c0 70.798 57.598 128.396 128.396 128.396h46.124a.742.742 0 0 0 .741-.741v-276.32c0-8.272-6.729-15-15-15h-145.261z"
        style="fill: #163560"
      />
      <path
        d="M1791.427 1605.393h377.5v17.877h-377.5z"
        style="fill: #a8d29f"
      />
      <path
        d="M1774.927 1623.27h410.5v17.877h-410.5z"
        style="fill: #82b378"
      />
      <path
        d="M2657.094 1189.937c-11.782 0-21.333-9.551-21.333-21.333V993.937c0-11.782 9.551-21.333 21.333-21.333 11.782 0 21.333 9.551 21.333 21.333v174.667c0 11.781-9.552 21.333-21.333 21.333z"
        style="fill: #a8d29f"
      />
      <path
        d="M2648.01 986.52h-200.667c-7.686 0-13.917-6.231-13.917-13.917s6.231-13.917 13.917-13.917h200.667c7.686 0 13.917 6.231 13.917 13.917s-6.231 13.917-13.917 13.917z"
        style="fill: #82b378"
      />
      <path
        d="M1728.563 1285.921a431.109 431.109 0 0 1 2.211-6.659c.178-.534.275-.815.275-.815s.318.302.836.955c3.213 4.028 14.251 21.347 5.958 61.438-1.218 5.898-2.857 12.294-4.998 19.206 0 0 30.557-5.392 39.184-11.14.36-.9 4.853-14.201 8.268-15.998 3.416-1.797 9.706-3.775 11.144-3.056 1.438.719 4.135 10.784 0 15.996-4.133 5.213-14.736 10.246-14.736 10.246s-34.153 27.322-57.879 26.599c-19.828-.599 2.021-72.993 9.737-96.772z"
        style="fill: #d9935c"
      />
      <path
        d="M1582.316 1462.992c1.183-3.275 1.685-8.088 1.685-8.088 17.254 7.549 36.127 4.314 36.127 4.314 1.618 6.65.202 15.906.202 15.906-19.411 5.213-40.935-6.201-40.935-6.201s2.044-3.504 2.921-5.931z"
        style="fill: #fff"
      />
      <path
        d="M1608.826 1411.453c.776 1.889 4.158 3.567 9.025 4.774.455.109.919.219 1.391.329 11.032 2.403 28.483 2.539 41.346-2.226 14.388-5.331 24.831-81.391 29.267-120.384.068-.599.135-1.181.194-1.763 1.425-12.618 2.175-20.926 2.175-20.926s-8.265-12.938-40.265-8.628c-31.992 4.318-35.223 15.098-38.098 34.513-2.875 19.408-7.548 108.196-5.035 114.311z"
        style="fill: #466aa5"
      />
      <path
        d="M1619.243 1416.556c11.032 2.403 28.483 2.539 41.346-2.226 14.388-5.331 24.831-81.391 29.267-120.384.068-.599.135-1.181.194-1.763-3.265-11.302-5.728-18.522-5.728-18.522s-40.173-4.85-47.991 7.279c-6.832 10.602-15.106 110.591-17.088 135.616z"
        style="fill: #2b478b"
      />
      <path
        d="M1600.967 1454.187c2.367-1.496 4.655-6.047 5.5-7.864 7.304-18.145 15.729-53.443 18.514-59.937 1.013-2.362 2.954-13.507 5.5-27.866 4.567-25.764 11.064-61.88 17.573-76.191.782-1.715 3.019-3.176 5.953-4.4 7.78-3.254 20.406-4.842 23.367-5.182 3.147-2.521 7.49-13.352 7.431-29.848l1.409.278 23.7 4.693s-.539 7.459-.555 14.485c-.016 5.856.338 11.405 1.664 12.105 1.707.154 2.713.255 2.713.255s19.761 27.445 21.423 52.969c1.662 25.525-15.825 36.613.132 87.62 16.29 52.094-94.414 19.243-88.336 5.608 11.003-24.677 16.267-31.655 16.451-39.419.13-5.455-2.248-11.299-6.904-23.927-.412 1.519-.82 3.025-1.218 4.507-2.636 9.792-4.896 18.532-5.818 22.9-2.826 13.415-33.9 64.975-33.9 64.975l-.009-.002.006.003s-.941.628-2.04 3.767-9.888 19.775-13.655 19.775c-3.767 0-4.552-5.65-5.336-9.26-.785-3.609 3.453-8.161 6.435-10.044z"
        style="fill: #d9935c"
      />
      <path
        d="M1654.016 1176.858c5.258-3.217 13.655.628 13.655.628-2.904-4.08-13.498-2.746-13.498-2.746 21.156-4.501 25.526 9.061 25.871 10.264 15.306-13.814 39.813 15.632 39.813 15.632l-35.166 46.614s-3.207-7.416-7.445-5.1c-6.607 3.609-19.387-10.997-15.303-30.213a50.688 50.688 0 0 1 1.562-5.716c-1.373.601-2.93 1.086-4.387 1.086-3.845 0-9.652-9.81-10.437-13.105-.786-3.297.077-14.127 5.335-17.344z"
        style="fill: #233862"
      />
      <path
        d="M1709.913 1247.871s-.54 7.459-.555 14.485c-13.263-.374-20.272-12.472-23.145-19.178l23.7 4.693z"
        style="fill: #cb7d45"
      />
      <path
        d="M1683.765 1240.598s-6.95-10.982-8.618-20.372c-1.191-6.704 2.224-31.554 27.195-27.975 0 0 7.252.715 14.07 5.319 5.421 3.662 13.246 11.567 4.497 33.251l-2.272 7.325-34.872 2.452z"
        style="fill: #233862"
      />
      <path
        d="M1714.343 1254.524s-31.378.517-31.401-19.028c-.021-19.546-4.086-32.643 15.947-33.8 20.034-1.156 23.935 6.298 25.529 12.819 1.594 6.523-1.914 39.371-10.075 40.009z"
        style="fill: #d9935c"
      />
      <path
        d="M1674.739 1657.707c7.894 31.404 19.778 55.48 19.778 55.48l10.348-.717s-5.074-24.14-4.783-56.757c.205-22.803 3.025-49.753 12.035-75.484 30.962-88.426 25.958-152.781 25.958-152.781l-58.224 6.811-2.712.318c-.242 26.74-.932 63.044-1.537 91.434-.534 25.531-1.003 44.657-1.003 44.657-11.195 24.108-7.129 58.137.14 87.039z"
        style="fill: #aa413e"
      />
      <path
        d="M1654.644 1352.484c5.881 16.244 8.909 22.869 8.762 29.009 18.745-29.024 52.603-33.402 52.603-33.402l-64.294-7.35c.588 3.979 1.544 7.915 2.929 11.743z"
        style="fill: #cb7d45"
      />
      <path
        d="M1641.335 1652.692c3.348 35.728 18.088 58.831 18.088 58.831l4.943 3.595s4.678-25.172 7.989-55.121c3.155-28.464 7.479-58.585 12.37-67.779 19.417-36.461 25.262-174.107 25.262-174.107l-59.033-2.927c-5.936 9.98-8.525 26.351-9.139 44.965-1.553 46.976 9.49 108.231 11.14 117.09 0 .005 0 .011.006.021.129.685-.071 1.359-.389 1.979-11.745 23.253-13.443 49.852-11.237 73.453z"
        style="fill: #b64c41"
      />
      <path
        d="M1691.405 1227.539c-13.184 3.39-18.904-.143-18.904-.143s.982-13.4 12.212-22.058c16.289-12.558 27.508-5.544 28.201-4.51 2.054-1.768 5.72-3.061 10.572 2.82 7.274 8.816.802 24.403.802 24.403-2.986.348-3.69-9.898-5.254-14.875-1.152-3.665-4.929-7.4-6.842-9.119-.615 2.263-6.932 24.21-22.703 31.5 0 0 7.262-6.443 12.599-15.388-3.06 3.472-6.656 6.334-10.683 7.37z"
        style="fill: #233862"
      />
      <path
        d="M1639.555 1438.728c-.103 1.989.006 3.58.366 4.718 1.257 3.952 5.571 5.753 15.999 4.674 6.373-.663 9.215-11.344 10.482-20.458 3.828 13.038 9.188 20.355 16.117 21.892 10.11 2.249 61.109 8.449 64.446-15.794 3.672-26.664-7.322-73.877-7.926-99.333 1.499-9.027 2.011-16.861 1.849-23.591-.426-18.134-5.748-28.298-9.84-32.391-1.16-.89-2.319-1.445-6.972-2.243-2.378-.404-5.672-.873-10.341-1.488 0 0-1.906-.214-1.862-.144.863 1.542 12.414 19.032 11.513 23.53-.943 4.707-41.907.47-44.732-2.119-2.826-2.588-7.296-22.42-7.296-22.42s-14.505 1.586-21.601 6.746l.076.091c-.857.614-1.499 1.267-1.866 1.963-7.571 14.413-15.131 50.788-20.448 76.735 12.887 7.102 24.146 4.988 27.64 4.049-4.566 29.884-14.925 61.968-15.604 75.583z"
        style="fill: #f1a34f"
      />
      <path
        d="M1713.734 1274.715s.021.038.065.108c1.391 2.2 23.153 36.984 25.24 59.605 1.499-9.027 2.011-16.861 1.849-23.591-2.798-8.546-9.593-27.533-16.813-34.633-.904-.896-10.341-1.489-10.341-1.489z"
        style="fill: #466aa5"
      />
      <path
        d="m1765.507 1350.96 9.134-27.432a.912.912 0 0 1 1.152-.577l14.387 4.79a.912.912 0 0 1 .577 1.152l-9.135 27.432a.912.912 0 0 1-1.152.577l-14.387-4.791a.91.91 0 0 1-.576-1.151z"
        style="fill: #f1a34f"
      />
      <path
        d="m1768.801 1351.315 8.688-26.095a1.617 1.617 0 0 1 2.044-1.023l13.048 4.346a1.615 1.615 0 0 1 1.023 2.043l-8.689 26.095a1.617 1.617 0 0 1-2.044 1.023l-13.049-4.346a1.614 1.614 0 0 1-1.021-2.043z"
        style="fill: #d86713"
      />
      <path
        d="M1641.335 1652.692c3.348 35.728 18.088 58.831 18.088 58.831l5.033 4.584s4.589-26.16 7.899-56.109c-3.488.254-18.867.815-31.02-7.306zM1674.739 1657.707c7.894 31.404 19.778 55.48 19.778 55.48l10.348-.717s-5.074-24.14-4.783-56.757c-3.51 1.767-10.758 3.563-25.343 1.994z"
        style="fill: #d9935c"
      />
      <path
        d="M1688.558 1721.863h6.606c2.213-.348 3.846-.988 6.117-1.286 3.446-.451 5.033.961 5.349 1.286a.87.87 0 0 1 .061.066h28.062c.707-1.007.029-3.343-.636-5.061a3.99 3.99 0 0 0-2.627-2.401c-2.976-.862-8.843-1.629-14.215-6.493-3.023-2.731-14.597-10.044-14.597-10.044l-.061-.014c-.254.005-1.464.376-6.728 4.822-2.722 2.293-7.36-3.24-7.36-3.24s-.871.72-1.521 2.063c-.522 1.059-.904 2.514-.603 4.308.419 2.529-.932 7.228-2.01 10.406-.654 1.926-1.205 3.291-1.205 3.291s-.315 1.586 5.368 2.297z"
        style="fill: #233862"
      />
      <path
        d="M1687.009 1701.561c1.577 1.111 4.906 3.3 7.115 3.588 2.98.391 8.555-7.219 8.555-7.219l-.061-.014c-.254.005-1.464.376-6.728 4.822-2.722 2.293-7.36-3.24-7.36-3.24s-.871.72-1.521 2.063zM1688.558 1721.863h6.606c2.213-.348 3.846-.988 6.117-1.286 3.446-.451 5.033.961 5.349 1.286a.87.87 0 0 1 .061.066h28.062c.707-1.007.029-3.343-.636-5.061-.852-.758-1.092 3.291-1.563 3.936-.471.645-22.893.236-24.188-.706-1.295-.942-5.179-2.59-10.594-1.295-4.713 1.125-11.658-1.761-13.377-2.529-.654 1.926-1.205 3.291-1.205 3.291s-.315 1.587 5.368 2.298z"
        style="fill: #466aa5"
      />
      <path
        d="M1653.306 1721.863h6.606c2.212-.348 3.847-.988 6.117-1.286 3.446-.451 5.033.961 5.348 1.286.043.042.062.066.062.066h28.062c.706-1.007.028-3.343-.636-5.061a3.99 3.99 0 0 0-2.627-2.401c-2.975-.862-8.842-1.629-14.215-6.493-3.023-2.731-14.596-10.044-14.596-10.044l-.061-.014c-.255.005-1.464.376-6.729 4.822-2.722 2.293-7.359-3.24-7.359-3.24s-.871.72-1.521 2.063c-.522 1.059-.904 2.514-.602 4.308.419 2.529-.932 7.228-2.011 10.406-.654 1.926-1.205 3.291-1.205 3.291s-.316 1.586 5.367 2.297z"
        style="fill: #233862"
      />
      <path
        d="M1651.756 1701.561c1.578 1.111 4.907 3.3 7.115 3.588 2.981.391 8.555-7.219 8.555-7.219l-.061-.014c-.255.005-1.464.376-6.729 4.822-2.722 2.293-7.359-3.24-7.359-3.24s-.87.72-1.521 2.063zM1653.306 1721.863h6.606c2.212-.348 3.847-.988 6.117-1.286 3.446-.451 5.033.961 5.348 1.286.043.042.062.066.062.066h28.062c.706-1.007.028-3.343-.636-5.061-.852-.758-1.092 3.291-1.563 3.936-.471.645-22.892.236-24.187-.706-1.296-.942-5.18-2.59-10.595-1.295-4.713 1.125-11.657-1.761-13.376-2.529-.654 1.926-1.205 3.291-1.205 3.291s-.316 1.587 5.367 2.298z"
        style="fill: #466aa5"
      />
      <path
        d="M1639.555 1438.728c7.004-2.341 15.993-8.563 26.788-22.512 28.578-36.936 2.427-80.343-1.079-81.152-3.504-.809-10.105 28.082-10.105 28.082-4.566 29.883-14.925 61.967-15.604 75.582z"
        style="opacity: 0.4; fill: #d86713"
      />
      <path
        d="M1655.559 1270.898s28.758 19.592 30.915 61.111-35.228 49.967-35.228 49.967l2.427-13.121s30.285-10.964 22.377-44.036c-7.909-33.072-31.634-51.046-31.634-51.046l11.143-2.875z"
        style="fill: #466aa5"
      />
      <path
        d="M1792.249 1334.417s-2.696-5.571-7.639-3.325c-4.942 2.247-2.786 10.695.091 13.661 2.875 2.965 3.684 4.313 3.684 4.313l3.864-14.649z"
        style="fill: #d9935c"
      />
      <path
        d="M779.572 1392.211s4.756 5.427 1.977 8.807c-2.779 3.38-7.729 6.29-12.402 3.055-4.673-3.235-5.931-15.277-3.235-15.277 2.696.001 13.66 3.415 13.66 3.415z"
        style="fill: #cb8757"
      />
      <path
        d="M770.405 1340.986s13.66 44.575 10.785 51.046c-2.876 6.47-12.182 5.285-17.415-2.389-5.233-7.677 6.63-48.657 6.63-48.657z"
        style="fill: #aa413e"
      />
      <path
        d="M734.743 1241.509s21.059 3.812 28.87 11.622c7.81 7.81 26.239 30.85 14.645 107.668 0 0-.931 23.152-26.964 25.383-26.034 2.231-16.551-144.673-16.551-144.673z"
        style="fill: #b64c41"
      />
      <path
        d="M746.421 1239.517a53.924 53.924 0 0 1-.059-9.835v-.006c.14-1.65.307-2.626.307-2.626l-.307-.097-25.295-7.706-.625-.188c-.372 8.233-.852 14.332-1.359 18.862-.572 5.138-1.181 8.25-1.698 10.126h30.756c-.927-2.895-1.45-5.823-1.72-8.53z"
        style="fill: #d9935c"
      />
      <path
        d="M756.253 1186.815s-2.905-41.429-56.704-25.742c-12.207 3.559-10.62 40.416 18.944 54.448l37.76-28.706z"
        style="fill: #2b478b"
      />
      <path
        d="M686.346 1432.546c3.622 25.207 27.917 90.728 27.21 113.374-.559 17.846-.265 59.073 2.09 86.459.648 7.45 1.414 13.84 2.385 18.494 2.091 10.1 4.771 21.732 6.214 29.065 3.21 16.462 1.531 26.062 4.152 34.896 2.886 9.658 36.015 7.891 26.032 2.031-3.563-2.09-8.746-6.537-11.308-12.279-9.305-20.849 3.74-110.754 7.627-145.414.501-4.329.854-7.775 1.001-10.13 1.296-21.409 15.992-164.033 15.992-164.033-35.689-19.848-84.988 22.329-81.395 47.537z"
        style="fill: #d9935c"
      />
      <path
        d="M686.346 1432.546c3.622 25.207 27.917 90.728 27.21 113.374-.559 17.846-.265 59.073 2.09 86.459l35.102-73.207c.501-4.329.854-7.775 1.001-10.13 1.296-21.409 16.361-164.087 16.361-164.087-35.691-19.848-85.357 22.383-81.764 47.591z"
        style="fill: #cb8757"
      />
      <path
        d="M763.775 1389.642s-30.652 140.901-34.135 162.055c-3.482 21.153-31.397 120.764-25.313 145.725 3.589 14.724 9.847 19.08 9.847 19.08 1.472 2.699-22.773 8.06-24.731-2.271-2.486-13.118-3.008-31.53-6.649-62.744-6.271-53.745 6.166-84.33 9.181-106.791 3.015-22.461-10.123-93.858-2.832-118.257 12.761-42.699 41.181-60.205 74.632-36.797z"
        style="fill: #d9935c"
      />
      <path
        d="M681.974 1519.119s7.981 1.237 19.73 2.062l6.39-25.619 2.239 26.09c18.876.766 43.524-.176 61.693-7.686l-3.917-129.012s-26.316 6.942-57.973-5.22c.001.001-41.167 32.146-28.162 139.385z"
        style="fill: #b64c41"
      />
      <path
        d="M677.572 1694.998c1.46 8.275 1.754 23.152 1.805 26.931h2.598l.236-19.618c.185.236.363.438.523.624 2.319 2.589 5.373 15.19 7.633 18.994h28.753c.295-.826.076-1.636-.397-2.387v-.008c-1.315-2.066-4.58-3.66-4.58-3.66s-9.202 1.425-18.353-.877c-3.838-.961-10.332-35.061-10.332-35.061s-9.05 5.507-10.054 8.021c-.488 1.213.616 4.081 2.168 7.041z"
        style="fill: #aa413e"
      />
      <path
        d="M717.213 1696.593c1.038 7.118 1.392 17.645 1.51 22.941v.008c.017 1.004.034 1.814.042 2.387h2.598l.228-18.884c2.311 2.792 5.322 15.132 7.548 18.884h28.753c1.096-3.104-4.977-6.056-4.977-6.056s-9.202 1.425-18.353-.877c-3.838-.961-10.332-35.061-10.332-35.061s-9.051 5.507-10.054 8.021c-.573 1.433 1.064 5.161 3.037 8.637z"
        style="fill: #aa413e"
      />
      <path
        d="M707.919 1381.78s24.172 16.683 60.676 4.479c0 0 12.474-42.669 8.544-83.753-2.64-27.564-18.275-49.267-29.897-57.802-1.83 1.625-5.05 4.426-28.886-1.354 0 0-10.935 4.586-12.883 8.812-4.15 9.024 9.784 111.695 2.446 129.618z"
        style="fill: #e7f0fd"
      />
      <path
        d="M697.791 1395.266c10.778 2.209 19.082-5.392 31.833-9.043 4.24-1.207 7.981-2.709 10.807-4.447 11.396-7.009 16.933-58.896 14.959-78.537-1.944-19.612-37.035-59.89-37.035-59.89-8.097 6.008-9.61 19.988-14.469 38.333-11.69 44.144-6.095 113.584-6.095 113.584z"
        style="fill: #b64c41"
      />
      <path
        d="M697.791 1395.266c10.778 2.209 22.647-1.797 31.833-9.043 4.683-6.655 8.422-14.783 10.424-24.707 5.801-28.623-17.08-59.691-36.162-79.834-11.69 44.144-6.095 113.584-6.095 113.584z"
        style="fill: #aa413e"
      />
      <path
        d="M721.067 1219.248c2.884 4.832 11.987 18.188 25.354 20.269a53.924 53.924 0 0 1-.059-9.835v-.006c.14-1.65.307-2.626.307-2.626l-.307-.097-25.295-7.705z"
        style="fill: #cb7d45"
      />
      <path
        d="M753.518 1228.829s-31.399 6.306-35.025-13.308c-3.626-19.615-10.121-32.01 9.774-36.866 19.894-4.855 25.183 1.907 27.986 8.159 2.803 6.253 5.339 39.869-2.735 42.015z"
        style="fill: #d9935c"
      />
      <path
        d="M707.587 1181.613c10.503-13.183 23.667-11.44 30.563-9.243 1.379-.229 3.324-.387 5.982-.449 20.497-.477 14.833 23.198 14.833 23.198-.739-14.936-13.677-16.524-13.677-16.524l-.446-.132c1.143 4.16.741 10.828-9.3 17.133-16.196 10.169-14.954 30.507-10.649 36.227-.001 0-32.241-31.461-17.306-50.21z"
        style="fill: #2b478b"
      />
      <path
        d="M767.087 1418.632c2.553-10.81 5.439-16.445 8.827-17.227.964-.222 1.941-.004 2.828.63 2.627 1.876 4.851 7.635 6.798 17.603a180.092 180.092 0 0 1 2.114 13.981l-2.146.222c-.007-.067-.705-6.723-2.085-13.79-2.374-12.156-4.737-15.407-5.934-16.262-.507-.363-.866-.338-1.091-.283-4.57 1.055-8.533 19.401-9.956 30.718l-2.14-.269c.01-.075.972-7.649 2.785-15.323z"
        style="fill: #233862"
      />
      <path
        d="m741.951 1473.137 4.694-31.14a13.517 13.517 0 0 1 13.365-11.502h33.258a5.437 5.437 0 0 1 5.437 5.437v38.015a5.437 5.437 0 0 1-5.437 5.437h-45.94c-3.327 0-5.873-2.959-5.377-6.247z"
        style="fill: #233862"
      />
      <path
        d="M764.615 1430.495h29.28a5.837 5.837 0 0 1 5.73 4.721l7.251 37.212c.703 3.604-2.057 6.955-5.73 6.955h-31.331a5.838 5.838 0 0 1-5.782-5.031l-5.199-37.212c-.492-3.51 2.235-6.645 5.781-6.645z"
        style="fill: #2b478b"
      />
      <path
        d="M764.395 1398.034s13.579 3.556 14.375 6.365c.795 2.809-3.856 10.788-11.536 8.929-7.681-1.859-13.814-11.012-13.814-11.012l10.975-4.282z"
        style="fill: #da935b"
      />
      <path
        d="M718.356 1243.349s-20.01 2.599-29.581 22.476c-9.57 19.877 8.237 90.865 10.814 95.651 2.577 4.786 32.476 43.06 57.876 46.372 0 0 10.792-3.808 10.425-10.065 0 0-41.63-41.202-44.575-47.091-2.945-5.89 1.166-70.511.798-78.977-.369-8.467-5.757-28.366-5.757-28.366z"
        style="fill: #b64c41"
      />
      <path
        d="M1166.455 1432.374c.404-10.38 14.424-15.502 14.424-15.502 6.828-4.132 6.43-52.551 8.935-81.065.609-6.959 1.317-12.673 2.104-16.21 4.005-18.022 5.22-81.774 17.234-91.786 12.014-10.012 39.919-14.239 39.919-14.239s-8.984 48.102-18.787 98.349c-10.648 54.617-36.577 106.816-38.824 108.861-.007.007-.016.012-.023.018-2.31 4.943-8.474 11.803-11.772 14.001-4.044 2.696-1.887 8.088-6.74 8.628-6.436.714-6.681-5.64-6.47-11.055z"
        style="fill: #d9935c"
      />
      <path
        d="m1248.673 1207.736.021 3.945s-1.075 12.339 14.118 14.141c15.193 1.806 26.703-4.812 26.292-14.333-1.368-7.372-2.871-12.434-2.972-18.534-.038-2.267.117-4.673.54-7.388l-29.44-.588-8.672 1.417.113 21.34z"
        style="fill: #d9935c"
      />
      <path
        d="m1248.561 1186.395.113 21.341a24.883 24.883 0 0 0 10.611 2.342c13.531 0 22.277-9.922 26.848-17.123-.038-2.267.117-4.673.54-7.388l-29.44-.588-8.672 1.416z"
        style="fill: #cb7d45"
      />
      <path
        d="M1246.843 1196.765s37.706 7.617 42.088-15.937c4.382-23.553 12.2-38.434-11.689-44.293-23.89-5.859-30.252 2.256-33.627 9.763-3.375 7.505-6.468 47.879 3.228 50.467z"
        style="fill: #d9935c"
      />
      <path
        d="M1249.072 1213.571s-5.18 27.722-11.961 63.058a10525.209 10525.209 0 0 1-6.826 35.291c-9.602 18.823-17.844 31.621-20.389 29.213-5.193-4.904-14.31-5.509-20.082-5.327.609-6.959 1.317-12.673 2.104-16.21.316-1.424.614-3.132.903-5.077 3.36-22.676 5.264-77.489 16.331-86.709 12.015-10.012 39.92-14.239 39.92-14.239z"
        style="fill: #739af0"
      />
      <path
        d="M1209.896 1341.133c-5.193-4.904-14.31-5.509-20.082-5.327.609-6.959 1.317-12.673 2.104-16.21.316-1.424.614-3.132.903-5.077l28.791-69.502c.002 0-9.171 98.524-11.716 96.116z"
        style="fill: #4a75cb"
      />
      <path
        d="M1274.491 1721.929s1.558-11.273 4.822-17.799c3.263-6.527 24.029-2.374 24.029-2.374s4.153 3.56 5.043 20.172h-33.894zM1203.942 1721.929c4.879-2.978 2.052-24.59 2.052-24.59s-22.736-18.189-25.862-4.263c-3.126 13.927-21.6 20.179-32.115 21.884-7.259 1.177-7.732 4.591-8.428 6.969h64.353z"
        style="fill: #233862"
      />
      <path
        d="M1250.985 1560.939c-.926 5.1-1.513 9.283-1.669 12.282-2.114 41.227-34.704 135.492-40.533 137.69-9.019 3.404-23.223-3.831-30.654-6.198-3.079-.984-5.157-4.089-4.472-7.24 16.139-74.196 22.071-181.035 24.229-244.289 1.09-31.86 6.559-53.869 6.559-53.869s79.487-21.208 79.958 5.62c.419 23.739-26.329 116.842-33.418 156.004z"
        style="fill: #2b478b"
      />
      <path
        d="m1250.985 1560.939-53.099-107.756c1.09-31.86 6.559-53.869 6.559-53.869s79.487-21.208 79.958 5.62c.419 23.74-26.329 116.843-33.418 156.005z"
        style="fill: #233862"
      />
      <path
        d="m1233.3 1405.028 42.02 304.548s18.453 4.449 32.805.89c0 0 12.302-161.972 11.277-201.131-1.025-39.158 8.83-104.78-2.249-112.017-11.078-7.237-83.853 7.71-83.853 7.71z"
        style="fill: #2b478b"
      />
      <path
        d="M1323.192 1397.316a6.277 6.277 0 0 1-6.181 6.523l-66.217 1.01-48.637.743c-2.278.04 4.921-18.182 5.069-136.991.035-26.511 41.08-55.039 41.836-55.039l.009.009c0 3.818 6.016 10.866 15.285 11.471 11 .721 24.496-4.753 24.496-11.089 0-.071 1.277 1.313 3.333 4.303 5.491 8.001 16.553 27.509 23.615 61.469 5.575 26.819 3.431 62.675 7.444 108.941.295 3.342-.137 6.309-.052 8.65z"
        style="fill: #ffa412"
      />
      <path
        d="M1320.749 1404.209s-8.802 3.943-25.266 7.355c-12.241 2.541-28.715 4.793-48.952 4.917-32.186.205-44.373-10.889-44.373-10.889-2.278.04 4.921-18.182 5.069-136.991.035-26.511 41.08-55.039 41.836-55.039l.009.009s-1.055 35.304 9.625 45.686c0 0 14.978-11.569 34.41-44.498 5.491 8.001 15.632 31.006 22.694 64.967 1.432 6.911 2.358 14.417 3.008 22.548 1.873 23.432 1.455 52.044 4.436 86.393.293 3.342-.138 6.309-.054 8.65.139 3.528 1.087 6.838-2.442 6.892z"
        style="fill: #739af0"
      />
      <path
        d="M1320.749 1404.209s-8.802 3.943-25.266 7.355c-5.179-7.898-11.708-22.155-12.61-44.622-1.531-37.993 34.56-86.919 34.56-86.919l1.376 22.251c1.873 23.432 1.455 52.044 4.436 86.393.293 3.342-.138 6.309-.054 8.65.139 3.528 1.087 6.838-2.442 6.892z"
        style="fill: #4a75cb"
      />
      <path
        d="m1225.06 1290.017 47.394-27.362a8.154 8.154 0 0 1 11.139 2.984l40.566 70.262a8.154 8.154 0 0 1-2.985 11.139l-47.394 27.363a8.154 8.154 0 0 1-11.139-2.985l-40.565-70.262a8.152 8.152 0 0 1 2.984-11.139z"
        style="fill: #b64c41"
      />
      <path
        d="M1233.104 1327.784c1.08-2.967 11.664-6.823 15.336-6.823 3.63 0 12.951 8.689 13.166 8.89 2.669-.123 28.879-1.382 48.357-4.234 5.117-.747 9.767-1.606 13.403-2.581 4.468-1.197-17.705-57.393-28.892-90.442-2.67-7.885-4.712-14.453-5.621-18.64 0 0 1.954.316 5.024.921 8.708 1.718 26.405 5.758 33.938 11.454 10.19 7.703 35.625 94.577 20.024 128.154 0 0-12.597 1.228-34.135-.984-15.435-1.586-35.466-4.947-58.735-11.787a8.758 8.758 0 0 1-1.563.014c-3.24-.297-15.768-3.263-18.792-4.449-3.022-1.187-2.59-6.527-1.51-9.493z"
        style="fill: #d9935c"
      />
      <path
        d="M1347.84 1354.482s-12.597 1.228-34.135-.984c1.189-5.851 2.292-17.279-3.742-27.882 5.117-.748 9.767-1.607 13.403-2.581 4.468-1.197-17.705-57.393-28.892-90.442-.895-10.684-1.366-17.835-1.366-17.835l.77.115c8.708 1.718 26.405 5.758 33.938 11.454 10.19 7.704 35.625 94.577 20.024 128.155z"
        style="fill: #739af0"
      />
      <path
        d="M1258.695 1259.257s29.963-13.201 30.407-14.24c.446-1.038-1.483-9.047-3.56-11.421 0 0 14.388 1.335 15.278-.445.89-1.78 1.186-16.613 1.186-16.613s-5.636-5.933-13.053-6.527c0 0-6.493 16.102-8.9 20.915-6.376 12.757-21.358 28.331-21.358 28.331zM1251.576 1233.151s1.928 15.426 7.119 26.105c0 0-15.648-10.902-16.983-14.462s3.782-10.456 3.782-10.456-9.344-.223-9.567-3.337c-.222-3.115 2.893-15.352 2.893-15.352s7.641-5.793 9.866-5.57l2.89 23.072z"
        style="fill: #4a75cb"
      />
      <path
        d="M1236.283 1128.798s10.515-.809 22.916-6.201c10.066-4.377 22.766.443 26.888 2.614a6.125 6.125 0 0 0-1.005-2.48s1.851 1.312 2.123 3.147c.191.14.276.237.227.269 0 0 2.099-.384 3.446.223 0 0-.944-.135-1.281.472a.578.578 0 0 1-.151.166c15.702 7.587 17.152 32.402 12.099 38.145-6.079 6.908-13.368 22.465-13.368 22.465s-2.659-3.675-1.553-9.754c1.105-6.08-4.145-6.08-10.777-8.843s-1.105-10.5-6.908-15.198c-5.803-4.697-27.08-1.934-26.804-5.526-7.898-2.876-5.852-18.69-5.852-19.499z"
        style="fill: #233862"
      />
      <path
        d="M1273.22 1313.298a3.954 3.954 0 1 1 0 7.909 3.954 3.954 0 0 1 0-7.909z"
        style="fill: #ed6058"
      />
      <path
        d="M1110.152 1707.542c2.243 5.241-.189 11.308-5.43 13.552-5.242 2.242-11.309-.188-13.552-5.43-2.243-5.242.188-11.309 5.43-13.552 5.241-2.242 11.308.19 13.552 5.43z"
        style="fill: #d86713"
      />
      <path
        d="M1111.093 1707.542c2.243 5.241-.188 11.308-5.429 13.552-5.242 2.242-11.309-.188-13.552-5.43s.188-11.309 5.43-13.552c5.241-2.242 11.308.19 13.551 5.43z"
        style="fill: #f1a34f"
      />
      <path
        d="M1193.014 1707.542c2.243 5.241-.188 11.308-5.43 13.552-5.241 2.242-11.309-.188-13.552-5.43-2.243-5.242.189-11.309 5.43-13.552s11.309.19 13.552 5.43z"
        style="fill: #d86713"
      />
      <path
        d="M1193.956 1707.542c2.243 5.241-.188 11.308-5.429 13.552-5.242 2.242-11.309-.188-13.552-5.43s.189-11.309 5.43-13.552c5.242-2.242 11.308.19 13.551 5.43z"
        style="fill: #f1a34f"
      />
      <path
        d="m1088.804 1706.214 14.679 5.271a13.3 13.3 0 0 0 4.63.783l83.293-.853 9.093-15.076-111.695 9.875z"
        style="fill: #d86713"
      />
      <path
        d="M1144.224 1449.33c.217-1.963 3.033-21.98 26.979-22.634l17.403-1.835c1.136-.224 8.486-1.455 14.129 2.846 3.807 2.903 5.901 7.551 6.221 13.819.415 8.088-9.754 60.415-14.403 83.803l31.149 6.227s13.108 5.332 10.508 28.299c-2.288 20.21-12.319 133.613-12.319 133.613s-2.093 23.598-52.496 16.754l9.357-187.653 9.442 1.888c6.075-30.513 14.668-75.851 14.317-82.704-.25-4.885-1.749-8.414-4.452-10.488-4.338-3.328-10.578-2.042-10.634-2.029l-17.845 1.895-.177.011c-21.047.53-22.698 17.938-22.757 18.672l-.009.118-14.854 81.472-4.379-.799 14.82-81.275z"
        style="fill: #d86713"
      />
      <path
        d="m1205.673 1553.763-12.089 127a28.607 28.607 0 0 1-5.114 13.819c-5.182 7.341-13.712 12.1-23.277 12.158l-41.688.259-1.031.01-26.109.161a28.789 28.789 0 0 1-9.23-1.448c-9.038-2.998-15.992-10.353-18.568-19.401a28.572 28.572 0 0 1-.739-12.264l18.932-121.514c2.022-12.957 12.572-22.9 25.627-24.149l7.363-.704 1.756-.165.003-.002 1.476-.14 24.614-2.354 3.021-.287 23.753-2.268a28.712 28.712 0 0 1 10.69.982c.22.064.44.129.659.202l1.373.469c11.718 4.358 19.858 16.183 18.578 29.636z"
        style="fill: #f1a34f"
      />
      <path
        d="M1188.47 1694.581c-5.182 7.341-13.712 12.1-23.277 12.158l-41.688.259-1.031.01-26.109.161a28.789 28.789 0 0 1-9.23-1.448c-9.038-2.998-19.458-13.94-19.606-25.548 0 0 88.187-1.153 106.62 1.693 9.508 1.469 12.353 8.118 14.321 12.715z"
        style="opacity: 0.4; fill: #d86713"
      />
      <path
        d="M1079.123 1685.308c.718-5.12 17.647-125.336 20.275-136.05 2.305-9.387 15.936-18.745 20.354-21.568l1.756-.165.003-.002 1.476-.14c-.183.113-19.519 11.895-22.061 22.246-2.612 10.64-20.069 134.64-20.243 135.892-.013.099-.493 12.083 9.443 21.01l-1.324-.317a28.311 28.311 0 0 1-1.665-.493c-9.335-9.266-8.079-19.945-8.014-20.413zM1133.402 1549.357c1.954-12.838 9.857-20.818 14.198-24.327l3.021-.287c-2.785 1.88-13.399 9.952-15.665 24.848-2.656 17.472-13.035 144.38-13.139 145.657l-.007.093-.028.085c-.02.063-1.501 6.914 2.77 11.566l-1.047.007-1.031.01c-4.089-4.988-2.471-11.113-2.219-11.973.323-3.925 10.512-128.348 13.147-145.679zM1169.464 1548.645c2.48-16.298 13.299-23.772 15.601-25.189.22.064.44.129.659.202l1.372.47c-.082.048-4.098 2.317-7.559 6.244-3.459 3.931-7.222 9.982-8.517 18.509-2.656 17.463-10.885 143.948-10.969 145.221l-.004.1-.03.091c-.02.064-.382 7.802 3.888 12.455l-2.627.017c-3.264-4.252-3.062-11.942-2.79-12.854.264-4.043 8.34-127.936 10.976-145.266z"
        style="fill: #d86713"
      />
      <path
        d="M400.395 1690.258c2.007 6.765 11.285 11.285 12.534 19.56.978 6.418 4.208 10.568 7.717 12.111h24.89c.59-1.577 1.342-5.507-5.001-6.899-8.029-1.763-11.049-11.488-10.551-20.512.211-3.787.11-8.097-.076-11.833-.253-5.171-.675-9.227-.675-9.227l-17.055-4.015-1.788 2.302-1.72 2.21c-.001-.001-10.283 9.53-8.275 16.303zM536.331 1721.929h58.551c-.683-2.117-2.749-5.449-8.923-6.444-8.992-1.45-24.57-6.689-28.045-18.176-.11-.371-.211-.743-.295-1.13-2.758-12.289-22.815 3.761-22.815 3.761s-.059.489-.143 1.316c-.447 4.302-1.553 17.814 1.67 20.673z"
        style="fill: #233862"
      />
      <path
        d="M583.574 1393.598s-3.047 38.014-6.628 83.708c-4.867 62.072-10.72 138.319-11.299 152.763-1.001 25.081-5.018 65.202-5.018 65.202s-9.525 9.531-28.588 5.514c0 0-16.987-57.273-21.84-117.871l-.226-2.993c-4.514-61.689-11.533-191.589-11.533-191.589l85.132 5.266z"
        style="fill: #2b478b"
      />
      <path
        d="M583.574 1393.598s-3.047 38.014-6.628 83.708l-66.744 105.608-.226-2.993c-4.514-61.689-11.533-191.589-11.533-191.589l85.131 5.266z"
        style="fill: #233862"
      />
      <path
        d="M569.659 1398.112s-54.918 137.671-91.028 202.369c-36.11 64.698-47.395 82.754-47.395 82.754s-20.688-8.276-22.569-13.918c0 0 13.809-124.902 37.992-155.35 13.665-17.205 29.716-68.835 30.468-86.891.752-18.056 4.89-53.789 4.89-53.789l87.642 24.825z"
        style="fill: #2b478b"
      />
      <path
        d="m625.198 1360.105 3.139 6.257s15.963 2.231 11.569 18.871c0 0-2.367 6.846-6.769 4.68-4.402-2.166-2.233-1.983-8.542-4.898-6.309-2.915-9.959-8.517-8.549-13.655l-1.01-5.447 10.162-5.808z"
        style="fill: #ab7041"
      />
      <path
        d="M541.493 1185.603c2.441-14.417 2.516-22.962 2.516-22.962l-27.864-22.456c1.035 30.878-18.751 45.726-18.751 45.726s37.132 18.277 58.594 11.507c.001 0-5.283-6.753-14.495-11.815z"
        style="fill: #9c5f33"
      />
      <path
        d="M550.573 1162.131s-35.447 5.889-38.775-16.243c-3.328-22.131-10.144-36.277 12.348-40.972 22.492-4.696 28.169 3.087 31.076 10.203 2.908 7.118 4.487 44.91-4.649 47.012z"
        style="fill: #ab7041"
      />
      <path
        d="M512.032 1147.415s.715-29.645 33.013-34.404c22.123-3.259 8.726-21.745 6.196-24.673 0 0-16.912 3.227-34.221 7.026-36.328 7.975-8.827 47.643-4.988 52.051z"
        style="fill: #233862"
      />
      <path
        d="M621.478 1368.802c4.738-4.861 8.257-11.192 8.257-11.192s-40.275-50.039-43.549-55.228c-3.274-5.189-27.734-88.421-27.734-88.421l-61.856-12.53s51.631 106.519 60.184 119.504c14.135 21.457 56.419 53.397 56.419 53.397s4.557-1.711 8.279-5.53z"
        style="fill: #74acbe"
      />
      <path
        d="M585.942 1396.764c-.646.537-1.396.86-2.256.86-8.059-.109-31.559 4.367-51.444 2.324-16.763-1.609-31.601-6.574-47.535-13.717-2.115-.949-6.986-3.547-6.876-5.913.071-2.589.329-6.345.651-11.075 1.128-16.446 3.094-44.734 1.177-77.369a341.99 341.99 0 0 1-.548-18.04c-.164-44.23 8.523-83.747 26.147-96.914 1.506-1.079 10.83 4.052 19.322 8.24 7.845 3.87 15.691 4.298 23.104 2.797l7.413 6.554c9.027 8.382 18.915 19.775 23.213 37.075 3.657 14.721 5.804 41.269 6.986 68.78.537 12.466.969 25.042 1.079 36.971v.427c.104 1.182.104 2.474.104 3.657.432 30.625-.001 54.91-.537 55.343z"
        style="fill: #9ed9f0"
      />
      <path
        d="M478.483 1369.243c1.128-16.446 3.094-44.734 1.177-77.369a341.99 341.99 0 0 1-.548-18.04c7.342-17.809 13.343-30.724 13.343-30.724h18.505c-.001-.001 13.566 92.665-32.477 126.133z"
        style="fill: #74acbe"
      />
      <path
        d="m334.982 1454.298 14.367-46.227c4.315-13.882 19.204-21.71 33.087-17.396l106.67 33.153c13.883 4.315 21.711 19.204 17.396 33.087l-14.367 46.226c-4.314 13.883-19.203 21.711-33.086 17.396l-106.67-33.152c-13.883-4.315-21.711-19.204-17.397-33.087z"
        style="fill: #d86713"
      />
      <path
        d="m320.766 1450.436 14.533-46.769c4.327-13.933 19.272-21.786 33.206-17.459l36.664 11.395 3.095-9.97c1.434-4.613 6.351-7.195 10.965-5.769l2.092.649 19.078 5.929 10.686 3.324a8.717 8.717 0 0 1 5.145 4.293c1.088 2.075 1.315 4.444.615 6.672l-3.095 9.969 21.238 6.604c.818.253 1.61.539 2.378.869.008 0 .017.008.026.008.008 0 .008.008.017.008.033.017.076.034.11.051 12.331 5.246 18.994 19.205 14.929 32.27l-14.533 46.768c-3.745 12.053-15.444 19.559-27.547 18.556h-.016a26.126 26.126 0 0 1-5.643-1.096l-.05-.017-106.433-33.079c-13.935-4.326-21.795-19.272-17.46-33.206zm127.746-39.363 3.095-9.969a3.265 3.265 0 0 0-2.151-4.09l-10.382-3.23-17.746-5.516-3.728-1.156a3.244 3.244 0 0 0-.97-.152c-1.392 0-2.69.902-3.121 2.302l-3.104 9.97 38.107 11.841z"
        style="fill: #f1a34f"
      />
      <path
        d="m442.481 1375.003-3.513 6.055s6.883 14.574-9.444 20.018c0 0-7.024 1.772-7.625-3.097-.6-4.87.435-2.954-.584-9.83-1.02-6.874 1.665-12.997 6.736-14.634l4.002-3.83 10.428 5.318z"
        style="fill: #ab7041"
      />
      <path
        d="M433.168 1376.659c6.664 1.299 13.887.772 13.887.772s19.783-61.112 22.329-66.695c2.547-5.582 58.761-71.656 58.761-71.656l-23.419-58.606s-60.802 101.563-66.975 115.834c-10.202 23.582-13.744 76.455-13.744 76.455s3.928 2.875 9.161 3.896z"
        style="fill: #9ed9f0"
      />
      <path
        d="M934.755 1715.401c.262 2.902.843 5.415 1.965 6.528h55.388c-.32-1.67-1.821-5.912-8.789-6.891-8.738-1.231-24.147-6.089-26.973-17.569-2.834-11.479-21.348 3.973-21.348 3.973s-.808 7.835-.243 13.959z"
        style="fill: #d86713"
      />
      <path
        d="M885.853 1721.929h57.463c-.987-1.847-3.433-5.22-8.561-6.528a16.386 16.386 0 0 0-1.821-.362c-8.747-1.231-24.148-6.089-26.982-17.569-2.834-11.479-21.348 3.973-21.348 3.973s-1.67 16.05 1.249 20.486z"
        style="fill: #d86713"
      />
      <path
        d="m910.81 1411.624.125 5.803c.519 24.045 2.574 117.015 4.523 168.847.082 1.886.15 3.711.219 5.485l.112 2.811c1.169 25.057 4.567 49.596 8.003 69.217 4.38 25.026 8.827 42.069 8.827 42.069 16.695 3.381 27.515-2.967 27.515-2.967s4.501-38.839 6.214-62.347c.562-7.627 3.31-33.653 6.759-65.313 2.674-24.483 5.766-52.338 8.602-77.67.15-1.35.294-2.699.45-4.029 4.58-40.956 8.371-74.316 8.371-74.316l-29.517-2.811-50.203-4.779z"
        style="fill: #2b478b"
      />
      <path
        d="m923.792 1663.788 49.315-88.559c2.674-24.483 5.766-52.338 8.602-77.67.15-1.35.294-2.699.45-4.029 4.58-40.956 8.371-74.316 8.371-74.316l-29.517-2.811-50.077 1.025 12.856 246.36z"
        style="fill: #233862"
      />
      <path
        d="M985.075 1419.434S957.483 1555.829 935 1621.658c-22.483 65.83-22.764 84.117-22.764 84.117s-20.63 4.473-29.719-.721c0 0-5.194-124.791 8.41-157.936 8.998-21.921 15.881-68.576 13.542-85.38-2.339-16.804-4.523-50.506-4.523-50.506l85.129 8.202z"
        style="fill: #2b478b"
      />
      <path
        d="m951.574 1236.327-30.682-8.652s5.208-12.748 7.017-26.039c1.001-7.378.96-14.917-1.605-20.541a14.443 14.443 0 0 0-.503-1.031c-1.169-2.185-.457-3.186 1.103-3.43 2.784-.447 8.266 1.509 10.582 3.44 3.521 2.936 20.48 11.549 21.364 12.001l.036.015s.026.127.061.366l.005.021c.096.595.284 1.849.467 3.597.859 8.183 1.59 27.21-7.845 40.253z"
        style="fill: #d9935c"
      />
      <path
        d="M907.287 1426.729c6.522 4.617 16.798 6.285 28.118 6.11 13.219-.213 27.849-2.942 39.544-6.441 6.29-1.88 11.726-3.979 15.649-6.022 17.473-9.115 14.993-21.241 14.575-66.638-.425-46.335-28.94-106.228-34.075-116.255-9.14-17.848-50.142-11.262-50.142-11.262-8.996 4.311-12.195 18.686-13.069 37.464-.974 20.859.918 47.159.918 71.142 0 19.829-3.743 37.358-6.466 51.895-3.53 18.88-5.348 32.711 4.948 40.007z"
        style="fill: #f1a34f"
      />
      <path
        d="M902.339 1386.723c7.89 16.63 23.427 35.34 33.066 46.116 13.219-.213 27.849-2.942 39.544-6.441 4.922-11.782 7.078-31.448 2.53-63.914-3.467-24.751-28.736-124.318-28.736-124.318-20.403-2.661-33.092 8.453-40.856 25.52-.974 20.859.918 47.159.918 71.142 0 19.828-3.743 37.358-6.466 51.895z"
        style="opacity: 0.4; fill: #d86713"
      />
      <path
        d="M910.553 1465.85h18.524v-5.758c0-9.557 7.775-17.332 17.331-17.332h15.331c9.557 0 17.331 7.775 17.331 17.332v5.758h18.525c5.56 0 10.108 4.549 10.108 10.109v47.171c0 5.56-4.548 10.109-10.108 10.109h-87.043c-5.56 0-10.108-4.549-10.108-10.109v-47.171c.001-5.56 4.549-10.109 10.109-10.109zm61.647-5.759c0-5.768-4.692-10.46-10.461-10.46h-15.331c-5.768 0-10.461 4.692-10.461 10.46v5.758H972.2v-5.758z"
        style="fill: #d6716b"
      />
      <path
        d="M959.38 1431.158s10.671 20.58 5.336 28.584c-5.336 8.004-24.391-2.286-25.916-6.86-1.524-4.573 0-26.678 0-26.678l20.58 4.954z"
        style="fill: #da935b"
      />
      <path
        d="M913.735 1270.184s3.971 56.633 3.92 80.062c-.05 23.429 18.593 85.746 18.593 85.746s12.339.989 17.18.364c5.578-.72 8.902-3.28 8.902-3.28s-4.095-73.627 3.718-101.846c7.812-28.219 8.224-84.899 8.224-84.899s-4.34-12.235-30.318-8.373c-30.82 4.581-30.219 32.226-30.219 32.226z"
        style="fill: #f1a34f"
      />
      <path
        d="M926.567 1200.166s-6.992 22.103-5.612 26.055c0 0 37.927 5.106 53.316 20.11 0 0-5.001-21.544-11.157-26.93-6.154-5.386-36.547-19.235-36.547-19.235z"
        style="fill: #f1a34f"
      />
      <path
        d="M959.886 1196.072h-.468c-3.44-.026-24.875.046-30.896 5.137a3.568 3.568 0 0 1-.615.427c1.001-7.378.96-14.917-1.605-20.541.218-1.722.427-3.262.6-4.461 2.784-.447 8.266 1.509 10.582 3.44 3.521 2.936 20.48 11.549 21.364 12.001l.097.38.005.021.936 3.596z"
        style="fill: #cb8757"
      />
      <path
        d="M973.227 1194.711s-35.456 6.787-39.343-15.359c-3.887-22.145-11.081-36.184 11.393-41.453s28.367 2.407 31.462 9.483c3.096 7.076 5.611 44.992-3.512 47.329z"
        style="fill: #d9935c"
      />
      <path
        d="M927.499 1188.975s1.844-1.406-5.334-12.285c-7.178-10.88-10.583-7.895-10.672-19.488-.088-11.594-4.402-18.555 9.052-26.102 13.455-7.547 11.312-14.539 19.384-16.212 8.072-1.673 19.813 4.979 26.739 3.579 6.927-1.401 28.628 26.843 14.728 33.527 0 0-6.457.321-10.992-2.474-4.534-2.796-21.175-5.624-23.121-.565-1.945 5.059-12.485 36.111-19.784 40.02zM1467.195 1426.735s-25.189-11.465-44.248-1.435c-19.058 10.031-7.406 92.82 19.846 100.845 0 0 58.505 71.112 24.402-99.41z"
        style="fill: #233862"
      />
      <path
        d="M1511.797 1436.326c1.242-9.685-1.173-27.243-1.173-27.243s8.557-.441 13.348 10.837c9.93 23.373 5.616 73.826 5.015 81.048 0 0 3.41 14.343-1.657 39.151.747 1.764 1.758 4.045 2.36 4.961a2.929 2.929 0 0 1 .289 3.496l-3.281 5.2c-.31.491-.746.856-1.24 1.085a2.864 2.864 0 0 1-.508.179l-4.064.96-.4-13.845c.005-.008.031.002.048.004-1.393-13.563-9.876-96.939-8.737-105.833zm10.497 106.839.086-.113-.169.101c.038.012.072.023.083.012z"
        style="fill: #a05f32"
      />
      <path
        d="m1439.26 1710.244 3.237 11.685h27.351s8.143-14.939-30.588-11.685zM1497.911 1710.244l3.237 11.685h27.352c-.001 0 8.142-14.939-30.589-11.685z"
        style="fill: #aa413e"
      />
      <path
        d="M1448.553 1339.128c3.411-5.283 8.201-5.511 12.806-9.985 4.335-4.213 12.414-6.982 18.846-6.982 20.58 0 38.402 12.6 34.339 33.965-1.291 6.789-.2 12.137-5.702 20.073-6.869 9.905-15.22 17.854-28.636 17.854-7.118 0-13.357-1.642-18.846-6.832-2.99-2.826-7.276-3.174-9.908-6.25-5.316-6.214-4.92-14.401-6.872-22.864-1.787-7.749.417-13.471 3.973-18.979z"
        style="fill: #2b478b"
      />
      <path
        d="M1494.482 1383.409s-4.514 17.453 4.614 24.875l-25.651 13.11-3.379-16.968s4.845-13.257 3.515-31.719l20.901 10.702z"
        style="fill: #a05f32"
      />
      <path
        d="M1495.142 1392.197s-26.255 3.199-26.815-15.298c-.56-18.496 10.383-30.479 17.687-30.341 14.566.273 16.968 6.158 18.657 12.287 1.689 6.129 2.558 32.049-9.529 33.352z"
        style="fill: #af7041"
      />
      <path
        d="m1520.192 1531.995-51.886 4.289s-6.094 91.002 27.999 175.362c0 0 4.3 1.623 15.546 1.623 7.872 0 13.526-2.176 13.526-2.176l-5.185-179.098z"
        style="fill: #233862"
      />
      <path
        d="M1439.675 1537.223s-15.964 62.018-3.019 175.2c0 0 6.736 2.188 16.998 2.111 11.111-.085 18.219-2.104 18.219-2.104l16.892-146.942c.644-4.352 9.145-27.203 9.145-27.203l-58.235-1.062z"
        style="fill: #2b478b"
      />
      <path
        d="m1438.497 1445.25-3.394-27.867c.515-.72.927-1.337 1.441-1.954 5.963-7.301 28.895-10.489 33.522-11.003.206.205 10.797 8.947 18.407 7.917 6.478-.822 7.592-4.259 7.387-7.961 13.573 2.262 21.236 6.576 21.236 6.576 13.828 5.183 16.607 51.126 16.607 51.126-1.836-.547-11.014 1.06-15.272 1.855l1.714 68.102c-33.008 14.397-80.517 5.141-80.517 5.141l.103-.411 3.188-54.501-2.982-24.885-1.44-12.135zM1488.12 1381.536s.572 2.307 6.322 1.882c0 0 4.828-.356 4.65-2.896 0 0-4.706-1.754-10.972 1.014z"
        style="fill: #fff"
      />
      <path
        d="M1459.656 1534.972c-2.245 2.81-13.338 4.285-19.981 2.25l3.268-54.911-4.453-37.02 4.303-1.998s18.892 15.155 16.683 27.234c-2.209 12.085 3.069 60.834.18 64.445z"
        style="fill: #9ed9f0"
      />
      <path
        d="M1419.062 1448.027s15.922 5.049 21.588 9.792c1.107.927.732.536 1.371 1.014l20.435-39.188 3.805-7.507 3.497-7.095.308-.617s-.308 0-.822.103c-1.954.205-6.788.822-12.34 2.056-3.497.823-7.302 1.749-10.694 3.085h-.103c-4.114 1.542-7.61 3.496-9.563 5.758-.515.618-.927 1.234-1.441 1.954-6.683 9.564-16.041 30.645-16.041 30.645z"
        style="fill: #fff"
      />
      <path
        d="M1440.553 1521.758s71.058-75.993 25.708-109.619c-2.674-2.057-5.759-3.907-9.357-5.553-3.497.823-7.302 1.749-10.694 3.085 3.701 1.028 10.694 3.702 16.247 9.974 11.003 12.237 16.144 38.254-21.286 92.447l-.618 9.666zM1492.513 1346.729s-22.438-.014-17.281 15.39c3.249 9.709-7.556 11.219-7.556 11.219s-4.685-11.493-5.2-15.562c-.394-3.114.729-10.265 3.258-12.124 5.397-3.968 26.779 1.077 26.779 1.077z"
        style="fill: #2b478b"
      />
      <path
        d="M1419.446 1448.172c6.934 2.141 18.016 6.513 21.204 9.647-3.526 8.107-5.85 13.759-5.85 13.759 2.651-1.179 16.36-2.291 23.464-2.8h.001c.805-.059 7.305-2.19 7.305-2.19s.053-11.096 12.745-11.974c0 0 5.286.032 4.201 3.641-1.084 3.609-1.198 2.042-2.613 7.169s-5.102 9.026-9.027 9.26c-18.844 15.844-44.79 15.973-52.611 15.608-1.394-.065-2.59-1.039-2.903-2.398-2.967-12.875-1.204-26.23 4.084-39.722z"
        style="fill: #a05f32"
      />
      <path
        d="M2785.951 1724.076H212.049a2.074 2.074 0 0 1-2.067-2.067v-.16c0-1.137.93-2.067 2.067-2.067h2573.902c1.137 0 2.066.931 2.066 2.067v.16a2.071 2.071 0 0 1-2.066 2.067z"
        style="fill: var(--homepage-bus-floor)"
      />
    </svg>
